%TF.GenerationSoftware,KiCad,Pcbnew,(5.1.12)-1*%
%TF.CreationDate,2023-08-26T20:17:23+05:30*%
%TF.ProjectId,flasher,666c6173-6865-4722-9e6b-696361645f70,rev?*%
%TF.SameCoordinates,Original*%
%TF.FileFunction,Legend,Top*%
%TF.FilePolarity,Positive*%
%FSLAX46Y46*%
G04 Gerber Fmt 4.6, Leading zero omitted, Abs format (unit mm)*
G04 Created by KiCad (PCBNEW (5.1.12)-1) date 2023-08-26 20:17:23*
%MOMM*%
%LPD*%
G01*
G04 APERTURE LIST*
%ADD10C,0.120000*%
%ADD11C,0.150000*%
G04 APERTURE END LIST*
D10*
%TO.C,R4*%
X150780000Y-85710000D02*
X150780000Y-89550000D01*
X148940000Y-85710000D02*
X148940000Y-89550000D01*
%TO.C,R3*%
X145700000Y-85710000D02*
X145700000Y-89550000D01*
X143860000Y-85710000D02*
X143860000Y-89550000D01*
%TO.C,R2*%
X140620000Y-85710000D02*
X140620000Y-89550000D01*
X138780000Y-85710000D02*
X138780000Y-89550000D01*
%TO.C,R1*%
X136810000Y-85710000D02*
X136810000Y-89550000D01*
X134970000Y-85710000D02*
X134970000Y-89550000D01*
%TO.C,Q2*%
X147355098Y-108407084D02*
X146464144Y-109298039D01*
X146464144Y-109298039D02*
X147241961Y-110075856D01*
X147241961Y-110075856D02*
X148132916Y-109184902D01*
X148132629Y-109184674D02*
G75*
G03*
X147355098Y-108407084I2997371J3774674D01*
G01*
%TO.C,Q1*%
X133385098Y-108407084D02*
X132494144Y-109298039D01*
X132494144Y-109298039D02*
X133271961Y-110075856D01*
X133271961Y-110075856D02*
X134162916Y-109184902D01*
X134162629Y-109184674D02*
G75*
G03*
X133385098Y-108407084I2997371J3774674D01*
G01*
%TO.C,D2*%
X149570000Y-94014000D02*
X149570000Y-94170000D01*
X149570000Y-96330000D02*
X149570000Y-96486000D01*
X152171130Y-96329837D02*
G75*
G02*
X150089039Y-96330000I-1041130J1079837D01*
G01*
X152171130Y-94170163D02*
G75*
G03*
X150089039Y-94170000I-1041130J-1079837D01*
G01*
X152802335Y-96328608D02*
G75*
G02*
X149570000Y-96485516I-1672335J1078608D01*
G01*
X152802335Y-94171392D02*
G75*
G03*
X149570000Y-94014484I-1672335J-1078608D01*
G01*
%TO.C,D1*%
X133060000Y-94014000D02*
X133060000Y-94170000D01*
X133060000Y-96330000D02*
X133060000Y-96486000D01*
X135661130Y-96329837D02*
G75*
G02*
X133579039Y-96330000I-1041130J1079837D01*
G01*
X135661130Y-94170163D02*
G75*
G03*
X133579039Y-94170000I-1041130J-1079837D01*
G01*
X136292335Y-96328608D02*
G75*
G02*
X133060000Y-96485516I-1672335J1078608D01*
G01*
X136292335Y-94171392D02*
G75*
G03*
X133060000Y-94014484I-1672335J-1078608D01*
G01*
%TO.C,C2*%
X147650000Y-95250000D02*
G75*
G03*
X147650000Y-95250000I-2120000J0D01*
G01*
X145530000Y-96090000D02*
X145530000Y-97330000D01*
X145530000Y-93170000D02*
X145530000Y-94410000D01*
X145570000Y-96090000D02*
X145570000Y-97330000D01*
X145570000Y-93170000D02*
X145570000Y-94410000D01*
X145610000Y-96090000D02*
X145610000Y-97329000D01*
X145610000Y-93171000D02*
X145610000Y-94410000D01*
X145650000Y-93173000D02*
X145650000Y-94410000D01*
X145650000Y-96090000D02*
X145650000Y-97327000D01*
X145690000Y-93176000D02*
X145690000Y-94410000D01*
X145690000Y-96090000D02*
X145690000Y-97324000D01*
X145730000Y-93179000D02*
X145730000Y-94410000D01*
X145730000Y-96090000D02*
X145730000Y-97321000D01*
X145770000Y-93183000D02*
X145770000Y-94410000D01*
X145770000Y-96090000D02*
X145770000Y-97317000D01*
X145810000Y-93188000D02*
X145810000Y-94410000D01*
X145810000Y-96090000D02*
X145810000Y-97312000D01*
X145850000Y-93194000D02*
X145850000Y-94410000D01*
X145850000Y-96090000D02*
X145850000Y-97306000D01*
X145890000Y-93200000D02*
X145890000Y-94410000D01*
X145890000Y-96090000D02*
X145890000Y-97300000D01*
X145930000Y-93208000D02*
X145930000Y-94410000D01*
X145930000Y-96090000D02*
X145930000Y-97292000D01*
X145970000Y-93216000D02*
X145970000Y-94410000D01*
X145970000Y-96090000D02*
X145970000Y-97284000D01*
X146010000Y-93225000D02*
X146010000Y-94410000D01*
X146010000Y-96090000D02*
X146010000Y-97275000D01*
X146050000Y-93234000D02*
X146050000Y-94410000D01*
X146050000Y-96090000D02*
X146050000Y-97266000D01*
X146090000Y-93245000D02*
X146090000Y-94410000D01*
X146090000Y-96090000D02*
X146090000Y-97255000D01*
X146130000Y-93256000D02*
X146130000Y-94410000D01*
X146130000Y-96090000D02*
X146130000Y-97244000D01*
X146170000Y-93268000D02*
X146170000Y-94410000D01*
X146170000Y-96090000D02*
X146170000Y-97232000D01*
X146210000Y-93282000D02*
X146210000Y-94410000D01*
X146210000Y-96090000D02*
X146210000Y-97218000D01*
X146251000Y-93296000D02*
X146251000Y-94410000D01*
X146251000Y-96090000D02*
X146251000Y-97204000D01*
X146291000Y-93310000D02*
X146291000Y-94410000D01*
X146291000Y-96090000D02*
X146291000Y-97190000D01*
X146331000Y-93326000D02*
X146331000Y-94410000D01*
X146331000Y-96090000D02*
X146331000Y-97174000D01*
X146371000Y-93343000D02*
X146371000Y-94410000D01*
X146371000Y-96090000D02*
X146371000Y-97157000D01*
X146411000Y-93361000D02*
X146411000Y-94410000D01*
X146411000Y-96090000D02*
X146411000Y-97139000D01*
X146451000Y-93380000D02*
X146451000Y-94410000D01*
X146451000Y-96090000D02*
X146451000Y-97120000D01*
X146491000Y-93399000D02*
X146491000Y-94410000D01*
X146491000Y-96090000D02*
X146491000Y-97101000D01*
X146531000Y-93420000D02*
X146531000Y-94410000D01*
X146531000Y-96090000D02*
X146531000Y-97080000D01*
X146571000Y-93442000D02*
X146571000Y-94410000D01*
X146571000Y-96090000D02*
X146571000Y-97058000D01*
X146611000Y-93465000D02*
X146611000Y-94410000D01*
X146611000Y-96090000D02*
X146611000Y-97035000D01*
X146651000Y-93490000D02*
X146651000Y-94410000D01*
X146651000Y-96090000D02*
X146651000Y-97010000D01*
X146691000Y-93515000D02*
X146691000Y-94410000D01*
X146691000Y-96090000D02*
X146691000Y-96985000D01*
X146731000Y-93542000D02*
X146731000Y-94410000D01*
X146731000Y-96090000D02*
X146731000Y-96958000D01*
X146771000Y-93570000D02*
X146771000Y-94410000D01*
X146771000Y-96090000D02*
X146771000Y-96930000D01*
X146811000Y-93600000D02*
X146811000Y-94410000D01*
X146811000Y-96090000D02*
X146811000Y-96900000D01*
X146851000Y-93631000D02*
X146851000Y-94410000D01*
X146851000Y-96090000D02*
X146851000Y-96869000D01*
X146891000Y-93663000D02*
X146891000Y-94410000D01*
X146891000Y-96090000D02*
X146891000Y-96837000D01*
X146931000Y-93698000D02*
X146931000Y-94410000D01*
X146931000Y-96090000D02*
X146931000Y-96802000D01*
X146971000Y-93734000D02*
X146971000Y-94410000D01*
X146971000Y-96090000D02*
X146971000Y-96766000D01*
X147011000Y-93772000D02*
X147011000Y-94410000D01*
X147011000Y-96090000D02*
X147011000Y-96728000D01*
X147051000Y-93812000D02*
X147051000Y-94410000D01*
X147051000Y-96090000D02*
X147051000Y-96688000D01*
X147091000Y-93854000D02*
X147091000Y-94410000D01*
X147091000Y-96090000D02*
X147091000Y-96646000D01*
X147131000Y-93899000D02*
X147131000Y-96601000D01*
X147171000Y-93946000D02*
X147171000Y-96554000D01*
X147211000Y-93996000D02*
X147211000Y-96504000D01*
X147251000Y-94050000D02*
X147251000Y-96450000D01*
X147291000Y-94108000D02*
X147291000Y-96392000D01*
X147331000Y-94170000D02*
X147331000Y-96330000D01*
X147371000Y-94237000D02*
X147371000Y-96263000D01*
X147411000Y-94310000D02*
X147411000Y-96190000D01*
X147451000Y-94391000D02*
X147451000Y-96109000D01*
X147491000Y-94482000D02*
X147491000Y-96018000D01*
X147531000Y-94586000D02*
X147531000Y-95914000D01*
X147571000Y-94713000D02*
X147571000Y-95787000D01*
X147611000Y-94880000D02*
X147611000Y-95620000D01*
X143260199Y-94055000D02*
X143660199Y-94055000D01*
X143460199Y-93855000D02*
X143460199Y-94255000D01*
%TO.C,C1*%
X142570000Y-95250000D02*
G75*
G03*
X142570000Y-95250000I-2120000J0D01*
G01*
X140450000Y-96090000D02*
X140450000Y-97330000D01*
X140450000Y-93170000D02*
X140450000Y-94410000D01*
X140490000Y-96090000D02*
X140490000Y-97330000D01*
X140490000Y-93170000D02*
X140490000Y-94410000D01*
X140530000Y-96090000D02*
X140530000Y-97329000D01*
X140530000Y-93171000D02*
X140530000Y-94410000D01*
X140570000Y-93173000D02*
X140570000Y-94410000D01*
X140570000Y-96090000D02*
X140570000Y-97327000D01*
X140610000Y-93176000D02*
X140610000Y-94410000D01*
X140610000Y-96090000D02*
X140610000Y-97324000D01*
X140650000Y-93179000D02*
X140650000Y-94410000D01*
X140650000Y-96090000D02*
X140650000Y-97321000D01*
X140690000Y-93183000D02*
X140690000Y-94410000D01*
X140690000Y-96090000D02*
X140690000Y-97317000D01*
X140730000Y-93188000D02*
X140730000Y-94410000D01*
X140730000Y-96090000D02*
X140730000Y-97312000D01*
X140770000Y-93194000D02*
X140770000Y-94410000D01*
X140770000Y-96090000D02*
X140770000Y-97306000D01*
X140810000Y-93200000D02*
X140810000Y-94410000D01*
X140810000Y-96090000D02*
X140810000Y-97300000D01*
X140850000Y-93208000D02*
X140850000Y-94410000D01*
X140850000Y-96090000D02*
X140850000Y-97292000D01*
X140890000Y-93216000D02*
X140890000Y-94410000D01*
X140890000Y-96090000D02*
X140890000Y-97284000D01*
X140930000Y-93225000D02*
X140930000Y-94410000D01*
X140930000Y-96090000D02*
X140930000Y-97275000D01*
X140970000Y-93234000D02*
X140970000Y-94410000D01*
X140970000Y-96090000D02*
X140970000Y-97266000D01*
X141010000Y-93245000D02*
X141010000Y-94410000D01*
X141010000Y-96090000D02*
X141010000Y-97255000D01*
X141050000Y-93256000D02*
X141050000Y-94410000D01*
X141050000Y-96090000D02*
X141050000Y-97244000D01*
X141090000Y-93268000D02*
X141090000Y-94410000D01*
X141090000Y-96090000D02*
X141090000Y-97232000D01*
X141130000Y-93282000D02*
X141130000Y-94410000D01*
X141130000Y-96090000D02*
X141130000Y-97218000D01*
X141171000Y-93296000D02*
X141171000Y-94410000D01*
X141171000Y-96090000D02*
X141171000Y-97204000D01*
X141211000Y-93310000D02*
X141211000Y-94410000D01*
X141211000Y-96090000D02*
X141211000Y-97190000D01*
X141251000Y-93326000D02*
X141251000Y-94410000D01*
X141251000Y-96090000D02*
X141251000Y-97174000D01*
X141291000Y-93343000D02*
X141291000Y-94410000D01*
X141291000Y-96090000D02*
X141291000Y-97157000D01*
X141331000Y-93361000D02*
X141331000Y-94410000D01*
X141331000Y-96090000D02*
X141331000Y-97139000D01*
X141371000Y-93380000D02*
X141371000Y-94410000D01*
X141371000Y-96090000D02*
X141371000Y-97120000D01*
X141411000Y-93399000D02*
X141411000Y-94410000D01*
X141411000Y-96090000D02*
X141411000Y-97101000D01*
X141451000Y-93420000D02*
X141451000Y-94410000D01*
X141451000Y-96090000D02*
X141451000Y-97080000D01*
X141491000Y-93442000D02*
X141491000Y-94410000D01*
X141491000Y-96090000D02*
X141491000Y-97058000D01*
X141531000Y-93465000D02*
X141531000Y-94410000D01*
X141531000Y-96090000D02*
X141531000Y-97035000D01*
X141571000Y-93490000D02*
X141571000Y-94410000D01*
X141571000Y-96090000D02*
X141571000Y-97010000D01*
X141611000Y-93515000D02*
X141611000Y-94410000D01*
X141611000Y-96090000D02*
X141611000Y-96985000D01*
X141651000Y-93542000D02*
X141651000Y-94410000D01*
X141651000Y-96090000D02*
X141651000Y-96958000D01*
X141691000Y-93570000D02*
X141691000Y-94410000D01*
X141691000Y-96090000D02*
X141691000Y-96930000D01*
X141731000Y-93600000D02*
X141731000Y-94410000D01*
X141731000Y-96090000D02*
X141731000Y-96900000D01*
X141771000Y-93631000D02*
X141771000Y-94410000D01*
X141771000Y-96090000D02*
X141771000Y-96869000D01*
X141811000Y-93663000D02*
X141811000Y-94410000D01*
X141811000Y-96090000D02*
X141811000Y-96837000D01*
X141851000Y-93698000D02*
X141851000Y-94410000D01*
X141851000Y-96090000D02*
X141851000Y-96802000D01*
X141891000Y-93734000D02*
X141891000Y-94410000D01*
X141891000Y-96090000D02*
X141891000Y-96766000D01*
X141931000Y-93772000D02*
X141931000Y-94410000D01*
X141931000Y-96090000D02*
X141931000Y-96728000D01*
X141971000Y-93812000D02*
X141971000Y-94410000D01*
X141971000Y-96090000D02*
X141971000Y-96688000D01*
X142011000Y-93854000D02*
X142011000Y-94410000D01*
X142011000Y-96090000D02*
X142011000Y-96646000D01*
X142051000Y-93899000D02*
X142051000Y-96601000D01*
X142091000Y-93946000D02*
X142091000Y-96554000D01*
X142131000Y-93996000D02*
X142131000Y-96504000D01*
X142171000Y-94050000D02*
X142171000Y-96450000D01*
X142211000Y-94108000D02*
X142211000Y-96392000D01*
X142251000Y-94170000D02*
X142251000Y-96330000D01*
X142291000Y-94237000D02*
X142291000Y-96263000D01*
X142331000Y-94310000D02*
X142331000Y-96190000D01*
X142371000Y-94391000D02*
X142371000Y-96109000D01*
X142411000Y-94482000D02*
X142411000Y-96018000D01*
X142451000Y-94586000D02*
X142451000Y-95914000D01*
X142491000Y-94713000D02*
X142491000Y-95787000D01*
X142531000Y-94880000D02*
X142531000Y-95620000D01*
X138180199Y-94055000D02*
X138580199Y-94055000D01*
X138380199Y-93855000D02*
X138380199Y-94255000D01*
%TO.C,R4*%
D11*
X152232380Y-87796666D02*
X151756190Y-88130000D01*
X152232380Y-88368095D02*
X151232380Y-88368095D01*
X151232380Y-87987142D01*
X151280000Y-87891904D01*
X151327619Y-87844285D01*
X151422857Y-87796666D01*
X151565714Y-87796666D01*
X151660952Y-87844285D01*
X151708571Y-87891904D01*
X151756190Y-87987142D01*
X151756190Y-88368095D01*
X151565714Y-86939523D02*
X152232380Y-86939523D01*
X151184761Y-87177619D02*
X151899047Y-87415714D01*
X151899047Y-86796666D01*
%TO.C,R3*%
X147152380Y-87796666D02*
X146676190Y-88130000D01*
X147152380Y-88368095D02*
X146152380Y-88368095D01*
X146152380Y-87987142D01*
X146200000Y-87891904D01*
X146247619Y-87844285D01*
X146342857Y-87796666D01*
X146485714Y-87796666D01*
X146580952Y-87844285D01*
X146628571Y-87891904D01*
X146676190Y-87987142D01*
X146676190Y-88368095D01*
X146152380Y-87463333D02*
X146152380Y-86844285D01*
X146533333Y-87177619D01*
X146533333Y-87034761D01*
X146580952Y-86939523D01*
X146628571Y-86891904D01*
X146723809Y-86844285D01*
X146961904Y-86844285D01*
X147057142Y-86891904D01*
X147104761Y-86939523D01*
X147152380Y-87034761D01*
X147152380Y-87320476D01*
X147104761Y-87415714D01*
X147057142Y-87463333D01*
%TO.C,R2*%
X142072380Y-87796666D02*
X141596190Y-88130000D01*
X142072380Y-88368095D02*
X141072380Y-88368095D01*
X141072380Y-87987142D01*
X141120000Y-87891904D01*
X141167619Y-87844285D01*
X141262857Y-87796666D01*
X141405714Y-87796666D01*
X141500952Y-87844285D01*
X141548571Y-87891904D01*
X141596190Y-87987142D01*
X141596190Y-88368095D01*
X141167619Y-87415714D02*
X141120000Y-87368095D01*
X141072380Y-87272857D01*
X141072380Y-87034761D01*
X141120000Y-86939523D01*
X141167619Y-86891904D01*
X141262857Y-86844285D01*
X141358095Y-86844285D01*
X141500952Y-86891904D01*
X142072380Y-87463333D01*
X142072380Y-86844285D01*
%TO.C,R1*%
X138262380Y-87796666D02*
X137786190Y-88130000D01*
X138262380Y-88368095D02*
X137262380Y-88368095D01*
X137262380Y-87987142D01*
X137310000Y-87891904D01*
X137357619Y-87844285D01*
X137452857Y-87796666D01*
X137595714Y-87796666D01*
X137690952Y-87844285D01*
X137738571Y-87891904D01*
X137786190Y-87987142D01*
X137786190Y-88368095D01*
X138262380Y-86844285D02*
X138262380Y-87415714D01*
X138262380Y-87130000D02*
X137262380Y-87130000D01*
X137405238Y-87225238D01*
X137500476Y-87320476D01*
X137548095Y-87415714D01*
%TO.C,Q2*%
X145857619Y-105505238D02*
X145810000Y-105600476D01*
X145714761Y-105695714D01*
X145571904Y-105838571D01*
X145524285Y-105933809D01*
X145524285Y-106029047D01*
X145762380Y-105981428D02*
X145714761Y-106076666D01*
X145619523Y-106171904D01*
X145429047Y-106219523D01*
X145095714Y-106219523D01*
X144905238Y-106171904D01*
X144810000Y-106076666D01*
X144762380Y-105981428D01*
X144762380Y-105790952D01*
X144810000Y-105695714D01*
X144905238Y-105600476D01*
X145095714Y-105552857D01*
X145429047Y-105552857D01*
X145619523Y-105600476D01*
X145714761Y-105695714D01*
X145762380Y-105790952D01*
X145762380Y-105981428D01*
X144857619Y-105171904D02*
X144810000Y-105124285D01*
X144762380Y-105029047D01*
X144762380Y-104790952D01*
X144810000Y-104695714D01*
X144857619Y-104648095D01*
X144952857Y-104600476D01*
X145048095Y-104600476D01*
X145190952Y-104648095D01*
X145762380Y-105219523D01*
X145762380Y-104600476D01*
%TO.C,Q1*%
X131887619Y-105505238D02*
X131840000Y-105600476D01*
X131744761Y-105695714D01*
X131601904Y-105838571D01*
X131554285Y-105933809D01*
X131554285Y-106029047D01*
X131792380Y-105981428D02*
X131744761Y-106076666D01*
X131649523Y-106171904D01*
X131459047Y-106219523D01*
X131125714Y-106219523D01*
X130935238Y-106171904D01*
X130840000Y-106076666D01*
X130792380Y-105981428D01*
X130792380Y-105790952D01*
X130840000Y-105695714D01*
X130935238Y-105600476D01*
X131125714Y-105552857D01*
X131459047Y-105552857D01*
X131649523Y-105600476D01*
X131744761Y-105695714D01*
X131792380Y-105790952D01*
X131792380Y-105981428D01*
X131792380Y-104600476D02*
X131792380Y-105171904D01*
X131792380Y-104886190D02*
X130792380Y-104886190D01*
X130935238Y-104981428D01*
X131030476Y-105076666D01*
X131078095Y-105171904D01*
%TO.C,D2*%
X149261904Y-92742380D02*
X149261904Y-91742380D01*
X149500000Y-91742380D01*
X149642857Y-91790000D01*
X149738095Y-91885238D01*
X149785714Y-91980476D01*
X149833333Y-92170952D01*
X149833333Y-92313809D01*
X149785714Y-92504285D01*
X149738095Y-92599523D01*
X149642857Y-92694761D01*
X149500000Y-92742380D01*
X149261904Y-92742380D01*
X150214285Y-91837619D02*
X150261904Y-91790000D01*
X150357142Y-91742380D01*
X150595238Y-91742380D01*
X150690476Y-91790000D01*
X150738095Y-91837619D01*
X150785714Y-91932857D01*
X150785714Y-92028095D01*
X150738095Y-92170952D01*
X150166666Y-92742380D01*
X150785714Y-92742380D01*
%TO.C,D1*%
X133881904Y-92742380D02*
X133881904Y-91742380D01*
X134120000Y-91742380D01*
X134262857Y-91790000D01*
X134358095Y-91885238D01*
X134405714Y-91980476D01*
X134453333Y-92170952D01*
X134453333Y-92313809D01*
X134405714Y-92504285D01*
X134358095Y-92599523D01*
X134262857Y-92694761D01*
X134120000Y-92742380D01*
X133881904Y-92742380D01*
X135405714Y-92742380D02*
X134834285Y-92742380D01*
X135120000Y-92742380D02*
X135120000Y-91742380D01*
X135024761Y-91885238D01*
X134929523Y-91980476D01*
X134834285Y-92028095D01*
%TO.C,C2*%
X145363333Y-92357142D02*
X145315714Y-92404761D01*
X145172857Y-92452380D01*
X145077619Y-92452380D01*
X144934761Y-92404761D01*
X144839523Y-92309523D01*
X144791904Y-92214285D01*
X144744285Y-92023809D01*
X144744285Y-91880952D01*
X144791904Y-91690476D01*
X144839523Y-91595238D01*
X144934761Y-91500000D01*
X145077619Y-91452380D01*
X145172857Y-91452380D01*
X145315714Y-91500000D01*
X145363333Y-91547619D01*
X145744285Y-91547619D02*
X145791904Y-91500000D01*
X145887142Y-91452380D01*
X146125238Y-91452380D01*
X146220476Y-91500000D01*
X146268095Y-91547619D01*
X146315714Y-91642857D01*
X146315714Y-91738095D01*
X146268095Y-91880952D01*
X145696666Y-92452380D01*
X146315714Y-92452380D01*
%TO.C,C1*%
X140283333Y-92357142D02*
X140235714Y-92404761D01*
X140092857Y-92452380D01*
X139997619Y-92452380D01*
X139854761Y-92404761D01*
X139759523Y-92309523D01*
X139711904Y-92214285D01*
X139664285Y-92023809D01*
X139664285Y-91880952D01*
X139711904Y-91690476D01*
X139759523Y-91595238D01*
X139854761Y-91500000D01*
X139997619Y-91452380D01*
X140092857Y-91452380D01*
X140235714Y-91500000D01*
X140283333Y-91547619D01*
X141235714Y-92452380D02*
X140664285Y-92452380D01*
X140950000Y-92452380D02*
X140950000Y-91452380D01*
X140854761Y-91595238D01*
X140759523Y-91690476D01*
X140664285Y-91738095D01*
%TD*%
M02*
