M48
; DRILL file {KiCad (5.1.12)-1} date 08/26/23 20:17:36
; FORMAT={-:-/ absolute / inch / decimal}
; #@! TF.CreationDate,2023-08-26T20:17:36+05:30
; #@! TF.GenerationSoftware,Kicad,Pcbnew,(5.1.12)-1
; #@! TF.FileFunction,Plated,1,2,PTH
FMAT,2
INCH
T1C0.0236
T2C0.0276
T3C0.0354
T4C0.1339
%
G90
G05
T1
X5.5Y-3.75
X5.5591Y-3.75
X5.7Y-3.75
X5.7591Y-3.75
T2
X5.35Y-3.35
X5.35Y-3.55
X5.4Y-4.05
X5.4Y-4.25
X5.5Y-3.35
X5.5Y-3.55
X5.5Y-4.15
X5.7Y-3.35
X5.7Y-3.55
X5.9Y-3.35
X5.9Y-3.55
X5.95Y-4.05
X5.95Y-4.25
X6.05Y-4.15
T3
X5.25Y-3.75
X5.35Y-3.75
X5.9Y-3.75
X6.0Y-3.75
T4
X5.1181Y-3.3465
X5.1181Y-4.4094
X6.2205Y-3.3465
X6.2205Y-4.4094
T0
M30
