%TF.GenerationSoftware,KiCad,Pcbnew,(5.1.12)-1*%
%TF.CreationDate,2023-08-26T19:26:49+05:30*%
%TF.ProjectId,IR PROXIMITY AUTOMATIC SANITIZER DISPENSER,49522050-524f-4584-994d-495459204155,rev?*%
%TF.SameCoordinates,Original*%
%TF.FileFunction,Legend,Top*%
%TF.FilePolarity,Positive*%
%FSLAX46Y46*%
G04 Gerber Fmt 4.6, Leading zero omitted, Abs format (unit mm)*
G04 Created by KiCad (PCBNEW (5.1.12)-1) date 2023-08-26 19:26:49*
%MOMM*%
%LPD*%
G01*
G04 APERTURE LIST*
%ADD10C,0.120000*%
%ADD11C,0.150000*%
G04 APERTURE END LIST*
D10*
%TO.C,RV1*%
X150411000Y-101230000D02*
X144770000Y-101230000D01*
X150411000Y-91490000D02*
X144770000Y-91490000D01*
X150411000Y-101230000D02*
X150411000Y-91490000D01*
X144770000Y-101230000D02*
X144770000Y-91490000D01*
X144770000Y-99980000D02*
X139770000Y-99980000D01*
X144770000Y-92740000D02*
X139770000Y-92740000D01*
X144770000Y-99980000D02*
X144770000Y-92740000D01*
X139770000Y-99980000D02*
X139770000Y-92740000D01*
X139770000Y-98980000D02*
X132770000Y-98980000D01*
X139770000Y-93740000D02*
X132770000Y-93740000D01*
X139770000Y-98980000D02*
X139770000Y-93740000D01*
X132770000Y-98980000D02*
X132770000Y-93740000D01*
%TO.C,U1*%
X158150000Y-91440000D02*
X156900000Y-91440000D01*
X156900000Y-91440000D02*
X156900000Y-101720000D01*
X156900000Y-101720000D02*
X161400000Y-101720000D01*
X161400000Y-101720000D02*
X161400000Y-91440000D01*
X161400000Y-91440000D02*
X160150000Y-91440000D01*
X160150000Y-91440000D02*
G75*
G02*
X158150000Y-91440000I-1000000J0D01*
G01*
%TO.C,R5*%
X160885001Y-104605001D02*
X164725001Y-104605001D01*
X160885001Y-106445001D02*
X164725001Y-106445001D01*
%TO.C,R4*%
X168490000Y-100920000D02*
X172330000Y-100920000D01*
X168490000Y-102760000D02*
X172330000Y-102760000D01*
%TO.C,R3*%
X160885001Y-107755001D02*
X164725001Y-107755001D01*
X160885001Y-109595001D02*
X164725001Y-109595001D01*
%TO.C,R2*%
X168915001Y-104605001D02*
X172755001Y-104605001D01*
X168915001Y-106445001D02*
X172755001Y-106445001D01*
%TO.C,R1*%
X160885001Y-110905001D02*
X164725001Y-110905001D01*
X160885001Y-112745001D02*
X164725001Y-112745001D01*
%TO.C,Q1*%
X168947669Y-93027719D02*
X168035501Y-92115552D01*
X168035501Y-92115552D02*
X167045552Y-93105501D01*
X167045552Y-93105501D02*
X167957719Y-94017669D01*
X167957850Y-94017456D02*
G75*
G03*
X168947669Y-93027719I2572150J-1582544D01*
G01*
%TO.C,J2*%
X145495001Y-104610001D02*
X145495001Y-116830001D01*
X145495001Y-116830001D02*
X157875001Y-116830001D01*
X157875001Y-116830001D02*
X157875001Y-104610001D01*
X157875001Y-104610001D02*
X145495001Y-104610001D01*
X145495001Y-115330001D02*
X145495001Y-113530001D01*
X145495001Y-113530001D02*
X157875001Y-113530001D01*
X157875001Y-113530001D02*
X157875001Y-115330001D01*
X157875001Y-115330001D02*
X145495001Y-115330001D01*
X148145001Y-116830001D02*
X150145001Y-116830001D01*
X150145001Y-116830001D02*
X149895001Y-115330001D01*
X149895001Y-115330001D02*
X148395001Y-115330001D01*
X148395001Y-115330001D02*
X148145001Y-116830001D01*
X153225001Y-116830001D02*
X155225001Y-116830001D01*
X155225001Y-116830001D02*
X154975001Y-115330001D01*
X154975001Y-115330001D02*
X153475001Y-115330001D01*
X153475001Y-115330001D02*
X153225001Y-116830001D01*
X149445001Y-103810001D02*
X149145001Y-104410001D01*
X149145001Y-104410001D02*
X148845001Y-103810001D01*
X148845001Y-103810001D02*
X149445001Y-103810001D01*
%TO.C,J1*%
X170320000Y-117010000D02*
X170320000Y-114350000D01*
X170320000Y-117010000D02*
X172920000Y-117010000D01*
X172920000Y-117010000D02*
X172920000Y-114350000D01*
X170320000Y-114350000D02*
X172920000Y-114350000D01*
X167720000Y-114350000D02*
X169050000Y-114350000D01*
X167720000Y-115680000D02*
X167720000Y-114350000D01*
%TO.C,D6*%
X161968851Y-116493867D02*
G75*
G02*
X162028240Y-114625001I-1053850J968866D01*
G01*
%TO.C,D5*%
X170793850Y-111248866D02*
G75*
G02*
X170853239Y-109380000I-1053850J968866D01*
G01*
%TO.C,D4*%
X176450000Y-99704000D02*
X176450000Y-99860000D01*
X176450000Y-102020000D02*
X176450000Y-102176000D01*
X179051130Y-102019837D02*
G75*
G02*
X176969039Y-102020000I-1041130J1079837D01*
G01*
X179051130Y-99860163D02*
G75*
G03*
X176969039Y-99860000I-1041130J-1079837D01*
G01*
X179682335Y-102018608D02*
G75*
G02*
X176450000Y-102175516I-1672335J1078608D01*
G01*
X179682335Y-99861392D02*
G75*
G03*
X176450000Y-99704484I-1672335J-1078608D01*
G01*
%TO.C,D3*%
X176310000Y-93124000D02*
X176310000Y-93280000D01*
X176310000Y-95440000D02*
X176310000Y-95596000D01*
X178911130Y-95439837D02*
G75*
G02*
X176829039Y-95440000I-1041130J1079837D01*
G01*
X178911130Y-93280163D02*
G75*
G03*
X176829039Y-93280000I-1041130J-1079837D01*
G01*
X179542335Y-95438608D02*
G75*
G02*
X176310000Y-95595516I-1672335J1078608D01*
G01*
X179542335Y-93281392D02*
G75*
G03*
X176310000Y-93124484I-1672335J-1078608D01*
G01*
%TO.C,D2*%
X176510000Y-106344000D02*
X176510000Y-106500000D01*
X176510000Y-108660000D02*
X176510000Y-108816000D01*
X179111130Y-108659837D02*
G75*
G02*
X177029039Y-108660000I-1041130J1079837D01*
G01*
X179111130Y-106500163D02*
G75*
G03*
X177029039Y-106500000I-1041130J-1079837D01*
G01*
X179742335Y-108658608D02*
G75*
G02*
X176510000Y-108815516I-1672335J1078608D01*
G01*
X179742335Y-106501392D02*
G75*
G03*
X176510000Y-106344484I-1672335J-1078608D01*
G01*
%TO.C,D1*%
X176650000Y-113824000D02*
X176650000Y-113980000D01*
X176650000Y-116140000D02*
X176650000Y-116296000D01*
X179251130Y-116139837D02*
G75*
G02*
X177169039Y-116140000I-1041130J1079837D01*
G01*
X179251130Y-113980163D02*
G75*
G03*
X177169039Y-113980000I-1041130J-1079837D01*
G01*
X179882335Y-116138608D02*
G75*
G02*
X176650000Y-116295516I-1672335J1078608D01*
G01*
X179882335Y-113981392D02*
G75*
G03*
X176650000Y-113824484I-1672335J-1078608D01*
G01*
%TO.C,BT1*%
X185200000Y-101880000D02*
X182540000Y-101880000D01*
X185200000Y-101880000D02*
X185200000Y-99280000D01*
X185200000Y-99280000D02*
X182540000Y-99280000D01*
X182540000Y-101880000D02*
X182540000Y-99280000D01*
X182540000Y-104480000D02*
X182540000Y-103150000D01*
X183870000Y-104480000D02*
X182540000Y-104480000D01*
%TO.C,RV1*%
D11*
X147923333Y-102676666D02*
X147690000Y-102343333D01*
X147523333Y-102676666D02*
X147523333Y-101976666D01*
X147790000Y-101976666D01*
X147856666Y-102010000D01*
X147890000Y-102043333D01*
X147923333Y-102110000D01*
X147923333Y-102210000D01*
X147890000Y-102276666D01*
X147856666Y-102310000D01*
X147790000Y-102343333D01*
X147523333Y-102343333D01*
X148123333Y-101976666D02*
X148356666Y-102676666D01*
X148590000Y-101976666D01*
X149190000Y-102676666D02*
X148790000Y-102676666D01*
X148990000Y-102676666D02*
X148990000Y-101976666D01*
X148923333Y-102076666D01*
X148856666Y-102143333D01*
X148790000Y-102176666D01*
%TO.C,U1*%
X158388095Y-89892380D02*
X158388095Y-90701904D01*
X158435714Y-90797142D01*
X158483333Y-90844761D01*
X158578571Y-90892380D01*
X158769047Y-90892380D01*
X158864285Y-90844761D01*
X158911904Y-90797142D01*
X158959523Y-90701904D01*
X158959523Y-89892380D01*
X159959523Y-90892380D02*
X159388095Y-90892380D01*
X159673809Y-90892380D02*
X159673809Y-89892380D01*
X159578571Y-90035238D01*
X159483333Y-90130476D01*
X159388095Y-90178095D01*
%TO.C,R5*%
X162638334Y-104057381D02*
X162305001Y-103581191D01*
X162066905Y-104057381D02*
X162066905Y-103057381D01*
X162447858Y-103057381D01*
X162543096Y-103105001D01*
X162590715Y-103152620D01*
X162638334Y-103247858D01*
X162638334Y-103390715D01*
X162590715Y-103485953D01*
X162543096Y-103533572D01*
X162447858Y-103581191D01*
X162066905Y-103581191D01*
X163543096Y-103057381D02*
X163066905Y-103057381D01*
X163019286Y-103533572D01*
X163066905Y-103485953D01*
X163162143Y-103438334D01*
X163400239Y-103438334D01*
X163495477Y-103485953D01*
X163543096Y-103533572D01*
X163590715Y-103628810D01*
X163590715Y-103866905D01*
X163543096Y-103962143D01*
X163495477Y-104009762D01*
X163400239Y-104057381D01*
X163162143Y-104057381D01*
X163066905Y-104009762D01*
X163019286Y-103962143D01*
%TO.C,R4*%
X170213333Y-100686666D02*
X169980000Y-100353333D01*
X169813333Y-100686666D02*
X169813333Y-99986666D01*
X170080000Y-99986666D01*
X170146666Y-100020000D01*
X170180000Y-100053333D01*
X170213333Y-100120000D01*
X170213333Y-100220000D01*
X170180000Y-100286666D01*
X170146666Y-100320000D01*
X170080000Y-100353333D01*
X169813333Y-100353333D01*
X170813333Y-100220000D02*
X170813333Y-100686666D01*
X170646666Y-99953333D02*
X170480000Y-100453333D01*
X170913333Y-100453333D01*
%TO.C,R3*%
X162638334Y-107207381D02*
X162305001Y-106731191D01*
X162066905Y-107207381D02*
X162066905Y-106207381D01*
X162447858Y-106207381D01*
X162543096Y-106255001D01*
X162590715Y-106302620D01*
X162638334Y-106397858D01*
X162638334Y-106540715D01*
X162590715Y-106635953D01*
X162543096Y-106683572D01*
X162447858Y-106731191D01*
X162066905Y-106731191D01*
X162971667Y-106207381D02*
X163590715Y-106207381D01*
X163257381Y-106588334D01*
X163400239Y-106588334D01*
X163495477Y-106635953D01*
X163543096Y-106683572D01*
X163590715Y-106778810D01*
X163590715Y-107016905D01*
X163543096Y-107112143D01*
X163495477Y-107159762D01*
X163400239Y-107207381D01*
X163114524Y-107207381D01*
X163019286Y-107159762D01*
X162971667Y-107112143D01*
%TO.C,R2*%
X170473333Y-103896666D02*
X170240000Y-103563333D01*
X170073333Y-103896666D02*
X170073333Y-103196666D01*
X170340000Y-103196666D01*
X170406666Y-103230000D01*
X170440000Y-103263333D01*
X170473333Y-103330000D01*
X170473333Y-103430000D01*
X170440000Y-103496666D01*
X170406666Y-103530000D01*
X170340000Y-103563333D01*
X170073333Y-103563333D01*
X170740000Y-103263333D02*
X170773333Y-103230000D01*
X170840000Y-103196666D01*
X171006666Y-103196666D01*
X171073333Y-103230000D01*
X171106666Y-103263333D01*
X171140000Y-103330000D01*
X171140000Y-103396666D01*
X171106666Y-103496666D01*
X170706666Y-103896666D01*
X171140000Y-103896666D01*
%TO.C,R1*%
X162638334Y-110357381D02*
X162305001Y-109881191D01*
X162066905Y-110357381D02*
X162066905Y-109357381D01*
X162447858Y-109357381D01*
X162543096Y-109405001D01*
X162590715Y-109452620D01*
X162638334Y-109547858D01*
X162638334Y-109690715D01*
X162590715Y-109785953D01*
X162543096Y-109833572D01*
X162447858Y-109881191D01*
X162066905Y-109881191D01*
X163590715Y-110357381D02*
X163019286Y-110357381D01*
X163305001Y-110357381D02*
X163305001Y-109357381D01*
X163209762Y-109500239D01*
X163114524Y-109595477D01*
X163019286Y-109643096D01*
%TO.C,Q1*%
X170433333Y-91813333D02*
X170366666Y-91780000D01*
X170300000Y-91713333D01*
X170200000Y-91613333D01*
X170133333Y-91580000D01*
X170066666Y-91580000D01*
X170100000Y-91746666D02*
X170033333Y-91713333D01*
X169966666Y-91646666D01*
X169933333Y-91513333D01*
X169933333Y-91280000D01*
X169966666Y-91146666D01*
X170033333Y-91080000D01*
X170100000Y-91046666D01*
X170233333Y-91046666D01*
X170300000Y-91080000D01*
X170366666Y-91146666D01*
X170400000Y-91280000D01*
X170400000Y-91513333D01*
X170366666Y-91646666D01*
X170300000Y-91713333D01*
X170233333Y-91746666D01*
X170100000Y-91746666D01*
X171066666Y-91746666D02*
X170666666Y-91746666D01*
X170866666Y-91746666D02*
X170866666Y-91046666D01*
X170800000Y-91146666D01*
X170733333Y-91213333D01*
X170666666Y-91246666D01*
%TO.C,J2*%
X151451667Y-103136667D02*
X151451667Y-103636667D01*
X151418334Y-103736667D01*
X151351667Y-103803334D01*
X151251667Y-103836667D01*
X151185001Y-103836667D01*
X151751667Y-103203334D02*
X151785001Y-103170001D01*
X151851667Y-103136667D01*
X152018334Y-103136667D01*
X152085001Y-103170001D01*
X152118334Y-103203334D01*
X152151667Y-103270001D01*
X152151667Y-103336667D01*
X152118334Y-103436667D01*
X151718334Y-103836667D01*
X152151667Y-103836667D01*
%TO.C,J1*%
X165732380Y-116013333D02*
X166446666Y-116013333D01*
X166589523Y-116060952D01*
X166684761Y-116156190D01*
X166732380Y-116299047D01*
X166732380Y-116394285D01*
X166732380Y-115013333D02*
X166732380Y-115584761D01*
X166732380Y-115299047D02*
X165732380Y-115299047D01*
X165875238Y-115394285D01*
X165970476Y-115489523D01*
X166018095Y-115584761D01*
%TO.C,D6*%
X160981904Y-118312380D02*
X160981904Y-117312380D01*
X161220000Y-117312380D01*
X161362857Y-117360000D01*
X161458095Y-117455238D01*
X161505714Y-117550476D01*
X161553333Y-117740952D01*
X161553333Y-117883809D01*
X161505714Y-118074285D01*
X161458095Y-118169523D01*
X161362857Y-118264761D01*
X161220000Y-118312380D01*
X160981904Y-118312380D01*
X162410476Y-117312380D02*
X162220000Y-117312380D01*
X162124761Y-117360000D01*
X162077142Y-117407619D01*
X161981904Y-117550476D01*
X161934285Y-117740952D01*
X161934285Y-118121904D01*
X161981904Y-118217142D01*
X162029523Y-118264761D01*
X162124761Y-118312380D01*
X162315238Y-118312380D01*
X162410476Y-118264761D01*
X162458095Y-118217142D01*
X162505714Y-118121904D01*
X162505714Y-117883809D01*
X162458095Y-117788571D01*
X162410476Y-117740952D01*
X162315238Y-117693333D01*
X162124761Y-117693333D01*
X162029523Y-117740952D01*
X161981904Y-117788571D01*
X161934285Y-117883809D01*
X165116905Y-115691667D02*
X165593096Y-115691667D01*
X165021667Y-115977381D02*
X165355001Y-114977381D01*
X165688334Y-115977381D01*
%TO.C,D5*%
X170483333Y-112876666D02*
X170483333Y-112176666D01*
X170650000Y-112176666D01*
X170750000Y-112210000D01*
X170816666Y-112276666D01*
X170850000Y-112343333D01*
X170883333Y-112476666D01*
X170883333Y-112576666D01*
X170850000Y-112710000D01*
X170816666Y-112776666D01*
X170750000Y-112843333D01*
X170650000Y-112876666D01*
X170483333Y-112876666D01*
X171516666Y-112176666D02*
X171183333Y-112176666D01*
X171150000Y-112510000D01*
X171183333Y-112476666D01*
X171250000Y-112443333D01*
X171416666Y-112443333D01*
X171483333Y-112476666D01*
X171516666Y-112510000D01*
X171550000Y-112576666D01*
X171550000Y-112743333D01*
X171516666Y-112810000D01*
X171483333Y-112843333D01*
X171416666Y-112876666D01*
X171250000Y-112876666D01*
X171183333Y-112843333D01*
X171150000Y-112810000D01*
X173941904Y-110446666D02*
X174418095Y-110446666D01*
X173846666Y-110732380D02*
X174180000Y-109732380D01*
X174513333Y-110732380D01*
%TO.C,D4*%
X177271904Y-98432380D02*
X177271904Y-97432380D01*
X177510000Y-97432380D01*
X177652857Y-97480000D01*
X177748095Y-97575238D01*
X177795714Y-97670476D01*
X177843333Y-97860952D01*
X177843333Y-98003809D01*
X177795714Y-98194285D01*
X177748095Y-98289523D01*
X177652857Y-98384761D01*
X177510000Y-98432380D01*
X177271904Y-98432380D01*
X178700476Y-97765714D02*
X178700476Y-98432380D01*
X178462380Y-97384761D02*
X178224285Y-98099047D01*
X178843333Y-98099047D01*
%TO.C,D3*%
X177353333Y-91716666D02*
X177353333Y-91016666D01*
X177520000Y-91016666D01*
X177620000Y-91050000D01*
X177686666Y-91116666D01*
X177720000Y-91183333D01*
X177753333Y-91316666D01*
X177753333Y-91416666D01*
X177720000Y-91550000D01*
X177686666Y-91616666D01*
X177620000Y-91683333D01*
X177520000Y-91716666D01*
X177353333Y-91716666D01*
X177986666Y-91016666D02*
X178420000Y-91016666D01*
X178186666Y-91283333D01*
X178286666Y-91283333D01*
X178353333Y-91316666D01*
X178386666Y-91350000D01*
X178420000Y-91416666D01*
X178420000Y-91583333D01*
X178386666Y-91650000D01*
X178353333Y-91683333D01*
X178286666Y-91716666D01*
X178086666Y-91716666D01*
X178020000Y-91683333D01*
X177986666Y-91650000D01*
%TO.C,D2*%
X177331904Y-105072380D02*
X177331904Y-104072380D01*
X177570000Y-104072380D01*
X177712857Y-104120000D01*
X177808095Y-104215238D01*
X177855714Y-104310476D01*
X177903333Y-104500952D01*
X177903333Y-104643809D01*
X177855714Y-104834285D01*
X177808095Y-104929523D01*
X177712857Y-105024761D01*
X177570000Y-105072380D01*
X177331904Y-105072380D01*
X178284285Y-104167619D02*
X178331904Y-104120000D01*
X178427142Y-104072380D01*
X178665238Y-104072380D01*
X178760476Y-104120000D01*
X178808095Y-104167619D01*
X178855714Y-104262857D01*
X178855714Y-104358095D01*
X178808095Y-104500952D01*
X178236666Y-105072380D01*
X178855714Y-105072380D01*
%TO.C,D1*%
X177471904Y-112552380D02*
X177471904Y-111552380D01*
X177710000Y-111552380D01*
X177852857Y-111600000D01*
X177948095Y-111695238D01*
X177995714Y-111790476D01*
X178043333Y-111980952D01*
X178043333Y-112123809D01*
X177995714Y-112314285D01*
X177948095Y-112409523D01*
X177852857Y-112504761D01*
X177710000Y-112552380D01*
X177471904Y-112552380D01*
X178995714Y-112552380D02*
X178424285Y-112552380D01*
X178710000Y-112552380D02*
X178710000Y-111552380D01*
X178614761Y-111695238D01*
X178519523Y-111790476D01*
X178424285Y-111838095D01*
%TO.C,BT1*%
X183084285Y-105848571D02*
X183227142Y-105896190D01*
X183274761Y-105943809D01*
X183322380Y-106039047D01*
X183322380Y-106181904D01*
X183274761Y-106277142D01*
X183227142Y-106324761D01*
X183131904Y-106372380D01*
X182750952Y-106372380D01*
X182750952Y-105372380D01*
X183084285Y-105372380D01*
X183179523Y-105420000D01*
X183227142Y-105467619D01*
X183274761Y-105562857D01*
X183274761Y-105658095D01*
X183227142Y-105753333D01*
X183179523Y-105800952D01*
X183084285Y-105848571D01*
X182750952Y-105848571D01*
X183608095Y-105372380D02*
X184179523Y-105372380D01*
X183893809Y-106372380D02*
X183893809Y-105372380D01*
X185036666Y-106372380D02*
X184465238Y-106372380D01*
X184750952Y-106372380D02*
X184750952Y-105372380D01*
X184655714Y-105515238D01*
X184560476Y-105610476D01*
X184465238Y-105658095D01*
%TD*%
M02*
