%TF.GenerationSoftware,KiCad,Pcbnew,(5.1.12)-1*%
%TF.CreationDate,2023-08-26T19:26:49+05:30*%
%TF.ProjectId,IR PROXIMITY AUTOMATIC SANITIZER DISPENSER,49522050-524f-4584-994d-495459204155,rev?*%
%TF.SameCoordinates,Original*%
%TF.FileFunction,Soldermask,Top*%
%TF.FilePolarity,Negative*%
%FSLAX46Y46*%
G04 Gerber Fmt 4.6, Leading zero omitted, Abs format (unit mm)*
G04 Created by KiCad (PCBNEW (5.1.12)-1) date 2023-08-26 19:26:49*
%MOMM*%
%LPD*%
G01*
G04 APERTURE LIST*
%ADD10C,1.800000*%
%ADD11O,2.400000X1.600000*%
%ADD12R,2.400000X1.600000*%
%ADD13O,1.400000X1.400000*%
%ADD14C,1.400000*%
%ADD15O,1.200000X1.200000*%
%ADD16O,1.600000X1.200000*%
%ADD17O,2.080000X3.600000*%
%ADD18O,1.700000X1.700000*%
%ADD19R,1.700000X1.700000*%
%ADD20O,1.800000X1.800000*%
%ADD21R,1.800000X1.800000*%
G04 APERTURE END LIST*
D10*
%TO.C,RV1*%
X148340000Y-93860000D03*
X148340000Y-96360000D03*
X148340000Y-98860000D03*
%TD*%
D11*
%TO.C,U1*%
X162960000Y-92770000D03*
X155340000Y-100390000D03*
X162960000Y-95310000D03*
X155340000Y-97850000D03*
X162960000Y-97850000D03*
X155340000Y-95310000D03*
X162960000Y-100390000D03*
D12*
X155340000Y-92770000D03*
%TD*%
D13*
%TO.C,R5*%
X165345001Y-105525001D03*
D14*
X160265001Y-105525001D03*
%TD*%
D13*
%TO.C,R4*%
X172950000Y-101840000D03*
D14*
X167870000Y-101840000D03*
%TD*%
D13*
%TO.C,R3*%
X165345001Y-108675001D03*
D14*
X160265001Y-108675001D03*
%TD*%
D13*
%TO.C,R2*%
X173375001Y-105525001D03*
D14*
X168295001Y-105525001D03*
%TD*%
D13*
%TO.C,R1*%
X165345001Y-111825001D03*
D14*
X160265001Y-111825001D03*
%TD*%
D15*
%TO.C,Q1*%
X171800000Y-95600000D03*
X170530000Y-96870000D03*
D16*
X169260000Y-95600000D03*
%TD*%
D17*
%TO.C,J2*%
X154225001Y-106720001D03*
G36*
G01*
X148105001Y-108270002D02*
X148105001Y-105170000D01*
G75*
G02*
X148355000Y-104920001I249999J0D01*
G01*
X149935002Y-104920001D01*
G75*
G02*
X150185001Y-105170000I0J-249999D01*
G01*
X150185001Y-108270002D01*
G75*
G02*
X149935002Y-108520001I-249999J0D01*
G01*
X148355000Y-108520001D01*
G75*
G02*
X148105001Y-108270002I0J249999D01*
G01*
G37*
%TD*%
D18*
%TO.C,J1*%
X171590000Y-115680000D03*
D19*
X169050000Y-115680000D03*
%TD*%
D20*
%TO.C,D6*%
X163455001Y-115525001D03*
D21*
X160915001Y-115525001D03*
%TD*%
D20*
%TO.C,D5*%
X172280000Y-110280000D03*
D21*
X169740000Y-110280000D03*
%TD*%
D10*
%TO.C,D4*%
X179280000Y-100940000D03*
D21*
X176740000Y-100940000D03*
%TD*%
D10*
%TO.C,D3*%
X179140000Y-94360000D03*
D21*
X176600000Y-94360000D03*
%TD*%
D10*
%TO.C,D2*%
X179340000Y-107580000D03*
D21*
X176800000Y-107580000D03*
%TD*%
D10*
%TO.C,D1*%
X179480000Y-115060000D03*
D21*
X176940000Y-115060000D03*
%TD*%
D18*
%TO.C,BT1*%
X183870000Y-100610000D03*
D19*
X183870000Y-103150000D03*
%TD*%
M02*
