%TF.GenerationSoftware,KiCad,Pcbnew,(5.1.12)-1*%
%TF.CreationDate,2023-08-26T19:26:49+05:30*%
%TF.ProjectId,IR PROXIMITY AUTOMATIC SANITIZER DISPENSER,49522050-524f-4584-994d-495459204155,rev?*%
%TF.SameCoordinates,Original*%
%TF.FileFunction,Copper,L1,Top*%
%TF.FilePolarity,Positive*%
%FSLAX46Y46*%
G04 Gerber Fmt 4.6, Leading zero omitted, Abs format (unit mm)*
G04 Created by KiCad (PCBNEW (5.1.12)-1) date 2023-08-26 19:26:49*
%MOMM*%
%LPD*%
G01*
G04 APERTURE LIST*
%TA.AperFunction,ComponentPad*%
%ADD10C,1.800000*%
%TD*%
%TA.AperFunction,ComponentPad*%
%ADD11O,2.400000X1.600000*%
%TD*%
%TA.AperFunction,ComponentPad*%
%ADD12R,2.400000X1.600000*%
%TD*%
%TA.AperFunction,ComponentPad*%
%ADD13O,1.400000X1.400000*%
%TD*%
%TA.AperFunction,ComponentPad*%
%ADD14C,1.400000*%
%TD*%
%TA.AperFunction,ComponentPad*%
%ADD15O,1.200000X1.200000*%
%TD*%
%TA.AperFunction,ComponentPad*%
%ADD16O,1.600000X1.200000*%
%TD*%
%TA.AperFunction,ComponentPad*%
%ADD17O,2.080000X3.600000*%
%TD*%
%TA.AperFunction,ComponentPad*%
%ADD18O,1.700000X1.700000*%
%TD*%
%TA.AperFunction,ComponentPad*%
%ADD19R,1.700000X1.700000*%
%TD*%
%TA.AperFunction,ComponentPad*%
%ADD20O,1.800000X1.800000*%
%TD*%
%TA.AperFunction,ComponentPad*%
%ADD21R,1.800000X1.800000*%
%TD*%
%TA.AperFunction,ViaPad*%
%ADD22C,3.500000*%
%TD*%
%TA.AperFunction,ViaPad*%
%ADD23C,0.800000*%
%TD*%
%TA.AperFunction,Conductor*%
%ADD24C,0.250000*%
%TD*%
%TA.AperFunction,Conductor*%
%ADD25C,0.254000*%
%TD*%
%TA.AperFunction,Conductor*%
%ADD26C,0.100000*%
%TD*%
G04 APERTURE END LIST*
D10*
%TO.P,RV1,1*%
%TO.N,VCC*%
X148340000Y-93860000D03*
%TO.P,RV1,2*%
%TO.N,Net-(RV1-Pad2)*%
X148340000Y-96360000D03*
%TO.P,RV1,3*%
%TO.N,Earth*%
X148340000Y-98860000D03*
%TD*%
D11*
%TO.P,U1,8*%
%TO.N,VCC*%
X162960000Y-92770000D03*
%TO.P,U1,4*%
%TO.N,Net-(RV1-Pad2)*%
X155340000Y-100390000D03*
%TO.P,U1,7*%
%TO.N,Net-(U1-Pad7)*%
X162960000Y-95310000D03*
%TO.P,U1,3*%
%TO.N,Net-(U1-Pad3)*%
X155340000Y-97850000D03*
%TO.P,U1,6*%
%TO.N,Net-(U1-Pad6)*%
X162960000Y-97850000D03*
%TO.P,U1,2*%
%TO.N,Net-(R4-Pad2)*%
X155340000Y-95310000D03*
%TO.P,U1,5*%
%TO.N,Earth*%
X162960000Y-100390000D03*
D12*
%TO.P,U1,1*%
X155340000Y-92770000D03*
%TD*%
D13*
%TO.P,R5,2*%
%TO.N,Net-(D3-Pad2)*%
X165345001Y-105525001D03*
D14*
%TO.P,R5,1*%
%TO.N,Net-(R4-Pad2)*%
X160265001Y-105525001D03*
%TD*%
D13*
%TO.P,R4,2*%
%TO.N,Net-(R4-Pad2)*%
X172950000Y-101840000D03*
D14*
%TO.P,R4,1*%
%TO.N,Net-(Q1-Pad2)*%
X167870000Y-101840000D03*
%TD*%
D13*
%TO.P,R3,2*%
%TO.N,Net-(D4-Pad2)*%
X165345001Y-108675001D03*
D14*
%TO.P,R3,1*%
%TO.N,VCC*%
X160265001Y-108675001D03*
%TD*%
D13*
%TO.P,R2,2*%
%TO.N,Net-(D2-Pad2)*%
X173375001Y-105525001D03*
D14*
%TO.P,R2,1*%
%TO.N,VCC*%
X168295001Y-105525001D03*
%TD*%
D13*
%TO.P,R1,2*%
%TO.N,Net-(D1-Pad2)*%
X165345001Y-111825001D03*
D14*
%TO.P,R1,1*%
%TO.N,VCC*%
X160265001Y-111825001D03*
%TD*%
D15*
%TO.P,Q1,3*%
%TO.N,Net-(D4-Pad1)*%
X171800000Y-95600000D03*
%TO.P,Q1,2*%
%TO.N,Net-(Q1-Pad2)*%
X170530000Y-96870000D03*
D16*
%TO.P,Q1,1*%
%TO.N,Earth*%
X169260000Y-95600000D03*
%TD*%
D17*
%TO.P,J2,2*%
%TO.N,Earth*%
X154225001Y-106720001D03*
%TO.P,J2,1*%
%TO.N,VCC*%
%TA.AperFunction,ComponentPad*%
G36*
G01*
X148105001Y-108270002D02*
X148105001Y-105170000D01*
G75*
G02*
X148355000Y-104920001I249999J0D01*
G01*
X149935002Y-104920001D01*
G75*
G02*
X150185001Y-105170000I0J-249999D01*
G01*
X150185001Y-108270002D01*
G75*
G02*
X149935002Y-108520001I-249999J0D01*
G01*
X148355000Y-108520001D01*
G75*
G02*
X148105001Y-108270002I0J249999D01*
G01*
G37*
%TD.AperFunction*%
%TD*%
D18*
%TO.P,J1,2*%
%TO.N,Net-(D4-Pad1)*%
X171590000Y-115680000D03*
D19*
%TO.P,J1,1*%
%TO.N,VCC*%
X169050000Y-115680000D03*
%TD*%
D20*
%TO.P,D6,2*%
%TO.N,Net-(BT1-Pad1)*%
X163455001Y-115525001D03*
D21*
%TO.P,D6,1*%
%TO.N,VCC*%
X160915001Y-115525001D03*
%TD*%
D20*
%TO.P,D5,2*%
%TO.N,Net-(D4-Pad1)*%
X172280000Y-110280000D03*
D21*
%TO.P,D5,1*%
%TO.N,VCC*%
X169740000Y-110280000D03*
%TD*%
D10*
%TO.P,D4,2*%
%TO.N,Net-(D4-Pad2)*%
X179280000Y-100940000D03*
D21*
%TO.P,D4,1*%
%TO.N,Net-(D4-Pad1)*%
X176740000Y-100940000D03*
%TD*%
D10*
%TO.P,D3,2*%
%TO.N,Net-(D3-Pad2)*%
X179140000Y-94360000D03*
D21*
%TO.P,D3,1*%
%TO.N,Earth*%
X176600000Y-94360000D03*
%TD*%
D10*
%TO.P,D2,2*%
%TO.N,Net-(D2-Pad2)*%
X179340000Y-107580000D03*
D21*
%TO.P,D2,1*%
%TO.N,Earth*%
X176800000Y-107580000D03*
%TD*%
D10*
%TO.P,D1,2*%
%TO.N,Net-(D1-Pad2)*%
X179480000Y-115060000D03*
D21*
%TO.P,D1,1*%
%TO.N,Earth*%
X176940000Y-115060000D03*
%TD*%
D18*
%TO.P,BT1,2*%
%TO.N,Earth*%
X183870000Y-100610000D03*
D19*
%TO.P,BT1,1*%
%TO.N,Net-(BT1-Pad1)*%
X183870000Y-103150000D03*
%TD*%
D22*
%TO.N,*%
X142000000Y-89000000D03*
X187000000Y-89000000D03*
X187000000Y-119000000D03*
X142000000Y-119000000D03*
D23*
%TO.N,Net-(RV1-Pad2)*%
X153320000Y-97150000D03*
X151040000Y-96870000D03*
%TD*%
D24*
%TO.N,Net-(D1-Pad2)*%
X179480000Y-117210000D02*
X179480000Y-115060000D01*
X179040000Y-117650000D02*
X179480000Y-117210000D01*
X165620000Y-117650000D02*
X179040000Y-117650000D01*
X165345001Y-117375001D02*
X165620000Y-117650000D01*
X165345001Y-111825001D02*
X165345001Y-117375001D01*
%TO.N,Net-(D4-Pad2)*%
X165345001Y-108675001D02*
X166364999Y-108675001D01*
X166364999Y-108675001D02*
X166930000Y-108110000D01*
X166930000Y-108110000D02*
X166930000Y-104280000D01*
X166930000Y-104280000D02*
X167520000Y-103690000D01*
X167520000Y-103690000D02*
X178580000Y-103690000D01*
X179280000Y-102990000D02*
X179280000Y-100940000D01*
X178580000Y-103690000D02*
X179280000Y-102990000D01*
%TO.N,VCC*%
X169050000Y-110970000D02*
X169740000Y-110280000D01*
X169050000Y-115680000D02*
X169050000Y-110970000D01*
X162960000Y-92770000D02*
X162960000Y-90780000D01*
X162960000Y-90780000D02*
X162590000Y-90410000D01*
X152540000Y-94220000D02*
X152285000Y-94475000D01*
X162590000Y-90410000D02*
X152790000Y-90410000D01*
X152790000Y-90410000D02*
X152540000Y-90660000D01*
X152540000Y-90660000D02*
X152540000Y-94220000D01*
X152285000Y-94475000D02*
X151795000Y-94475000D01*
X151790000Y-94470000D02*
X151795000Y-94475000D01*
X148950000Y-94470000D02*
X151790000Y-94470000D01*
X148340000Y-93860000D02*
X148950000Y-94470000D01*
X151880000Y-106160000D02*
X151319999Y-106720001D01*
X151880000Y-94820000D02*
X151880000Y-106160000D01*
X151319999Y-106720001D02*
X149145001Y-106720001D01*
X151530000Y-94470000D02*
X151880000Y-94820000D01*
X151790000Y-94470000D02*
X151530000Y-94470000D01*
%TO.N,Net-(R4-Pad2)*%
X160265001Y-104055001D02*
X160265001Y-105525001D01*
X153000000Y-103690000D02*
X159900000Y-103690000D01*
X159900000Y-103690000D02*
X160265001Y-104055001D01*
X152460000Y-103150000D02*
X153000000Y-103690000D01*
X152460000Y-95730000D02*
X152460000Y-103150000D01*
X152880000Y-95310000D02*
X152460000Y-95730000D01*
X155340000Y-95310000D02*
X152880000Y-95310000D01*
%TO.N,Net-(RV1-Pad2)*%
X151040000Y-96870000D02*
X151040000Y-96870000D01*
X153320000Y-97150000D02*
X153320000Y-99860000D01*
X153850000Y-100390000D02*
X155340000Y-100390000D01*
X153320000Y-99860000D02*
X153850000Y-100390000D01*
X150770000Y-96600000D02*
X151040000Y-96870000D01*
X148580000Y-96600000D02*
X150770000Y-96600000D01*
X148340000Y-96360000D02*
X148580000Y-96600000D01*
%TD*%
D25*
%TO.N,Earth*%
X186304321Y-86706654D02*
X185870279Y-86886440D01*
X185479651Y-87147450D01*
X185147450Y-87479651D01*
X184886440Y-87870279D01*
X184706654Y-88304321D01*
X184615000Y-88765098D01*
X184615000Y-89234902D01*
X184706654Y-89695679D01*
X184886440Y-90129721D01*
X185147450Y-90520349D01*
X185479651Y-90852550D01*
X185870279Y-91113560D01*
X186304321Y-91293346D01*
X186765098Y-91385000D01*
X187234902Y-91385000D01*
X187695679Y-91293346D01*
X188129721Y-91113560D01*
X188520349Y-90852550D01*
X188852550Y-90520349D01*
X189113560Y-90129721D01*
X189293346Y-89695679D01*
X189340000Y-89461133D01*
X189340001Y-118538872D01*
X189293346Y-118304321D01*
X189113560Y-117870279D01*
X188852550Y-117479651D01*
X188520349Y-117147450D01*
X188129721Y-116886440D01*
X187695679Y-116706654D01*
X187234902Y-116615000D01*
X186765098Y-116615000D01*
X186304321Y-116706654D01*
X185870279Y-116886440D01*
X185479651Y-117147450D01*
X185147450Y-117479651D01*
X184886440Y-117870279D01*
X184706654Y-118304321D01*
X184615000Y-118765098D01*
X184615000Y-119234902D01*
X184706654Y-119695679D01*
X184886440Y-120129721D01*
X185147450Y-120520349D01*
X185479651Y-120852550D01*
X185870279Y-121113560D01*
X186304321Y-121293346D01*
X186538867Y-121340000D01*
X142461133Y-121340000D01*
X142695679Y-121293346D01*
X143129721Y-121113560D01*
X143520349Y-120852550D01*
X143852550Y-120520349D01*
X144113560Y-120129721D01*
X144293346Y-119695679D01*
X144385000Y-119234902D01*
X144385000Y-118765098D01*
X144293346Y-118304321D01*
X144113560Y-117870279D01*
X143852550Y-117479651D01*
X143520349Y-117147450D01*
X143129721Y-116886440D01*
X142695679Y-116706654D01*
X142234902Y-116615000D01*
X141765098Y-116615000D01*
X141304321Y-116706654D01*
X140870279Y-116886440D01*
X140479651Y-117147450D01*
X140147450Y-117479651D01*
X139886440Y-117870279D01*
X139706654Y-118304321D01*
X139660000Y-118538867D01*
X139660000Y-114625001D01*
X159376929Y-114625001D01*
X159376929Y-116425001D01*
X159389189Y-116549483D01*
X159425499Y-116669181D01*
X159484464Y-116779495D01*
X159563816Y-116876186D01*
X159660507Y-116955538D01*
X159770821Y-117014503D01*
X159890519Y-117050813D01*
X160015001Y-117063073D01*
X161815001Y-117063073D01*
X161939483Y-117050813D01*
X162059181Y-117014503D01*
X162169495Y-116955538D01*
X162266186Y-116876186D01*
X162345538Y-116779495D01*
X162404503Y-116669181D01*
X162410057Y-116650874D01*
X162476496Y-116717313D01*
X162727906Y-116885300D01*
X163007258Y-117001012D01*
X163303817Y-117060001D01*
X163606185Y-117060001D01*
X163902744Y-117001012D01*
X164182096Y-116885300D01*
X164433506Y-116717313D01*
X164585002Y-116565817D01*
X164585002Y-117337669D01*
X164581325Y-117375001D01*
X164585002Y-117412334D01*
X164593737Y-117501015D01*
X164595999Y-117523986D01*
X164639455Y-117667247D01*
X164710027Y-117799277D01*
X164781202Y-117886003D01*
X164805001Y-117915002D01*
X164833999Y-117938800D01*
X165056196Y-118160997D01*
X165079999Y-118190001D01*
X165195724Y-118284974D01*
X165327753Y-118355546D01*
X165471014Y-118399003D01*
X165582667Y-118410000D01*
X165582676Y-118410000D01*
X165619999Y-118413676D01*
X165657322Y-118410000D01*
X179002678Y-118410000D01*
X179040000Y-118413676D01*
X179077322Y-118410000D01*
X179077333Y-118410000D01*
X179188986Y-118399003D01*
X179332247Y-118355546D01*
X179464276Y-118284974D01*
X179580001Y-118190001D01*
X179603804Y-118160997D01*
X179990998Y-117773803D01*
X180020001Y-117750001D01*
X180087915Y-117667248D01*
X180114974Y-117634277D01*
X180185546Y-117502247D01*
X180212820Y-117412334D01*
X180229003Y-117358986D01*
X180240000Y-117247333D01*
X180240000Y-117247323D01*
X180243676Y-117210000D01*
X180240000Y-117172677D01*
X180240000Y-116398313D01*
X180458505Y-116252312D01*
X180672312Y-116038505D01*
X180840299Y-115787095D01*
X180956011Y-115507743D01*
X181015000Y-115211184D01*
X181015000Y-114908816D01*
X180956011Y-114612257D01*
X180840299Y-114332905D01*
X180672312Y-114081495D01*
X180458505Y-113867688D01*
X180207095Y-113699701D01*
X179927743Y-113583989D01*
X179631184Y-113525000D01*
X179328816Y-113525000D01*
X179032257Y-113583989D01*
X178752905Y-113699701D01*
X178501495Y-113867688D01*
X178435056Y-113934127D01*
X178429502Y-113915820D01*
X178370537Y-113805506D01*
X178291185Y-113708815D01*
X178194494Y-113629463D01*
X178084180Y-113570498D01*
X177964482Y-113534188D01*
X177840000Y-113521928D01*
X177225750Y-113525000D01*
X177067000Y-113683750D01*
X177067000Y-114933000D01*
X177087000Y-114933000D01*
X177087000Y-115187000D01*
X177067000Y-115187000D01*
X177067000Y-116436250D01*
X177225750Y-116595000D01*
X177840000Y-116598072D01*
X177964482Y-116585812D01*
X178084180Y-116549502D01*
X178194494Y-116490537D01*
X178291185Y-116411185D01*
X178370537Y-116314494D01*
X178429502Y-116204180D01*
X178435056Y-116185873D01*
X178501495Y-116252312D01*
X178720000Y-116398313D01*
X178720000Y-116890000D01*
X172452036Y-116890000D01*
X172536632Y-116833475D01*
X172743475Y-116626632D01*
X172905990Y-116383411D01*
X173017932Y-116113158D01*
X173048397Y-115960000D01*
X175401928Y-115960000D01*
X175414188Y-116084482D01*
X175450498Y-116204180D01*
X175509463Y-116314494D01*
X175588815Y-116411185D01*
X175685506Y-116490537D01*
X175795820Y-116549502D01*
X175915518Y-116585812D01*
X176040000Y-116598072D01*
X176654250Y-116595000D01*
X176813000Y-116436250D01*
X176813000Y-115187000D01*
X175563750Y-115187000D01*
X175405000Y-115345750D01*
X175401928Y-115960000D01*
X173048397Y-115960000D01*
X173075000Y-115826260D01*
X173075000Y-115533740D01*
X173017932Y-115246842D01*
X172905990Y-114976589D01*
X172743475Y-114733368D01*
X172536632Y-114526525D01*
X172293411Y-114364010D01*
X172023158Y-114252068D01*
X171736260Y-114195000D01*
X171443740Y-114195000D01*
X171156842Y-114252068D01*
X170886589Y-114364010D01*
X170643368Y-114526525D01*
X170511513Y-114658380D01*
X170489502Y-114585820D01*
X170430537Y-114475506D01*
X170351185Y-114378815D01*
X170254494Y-114299463D01*
X170144180Y-114240498D01*
X170024482Y-114204188D01*
X169900000Y-114191928D01*
X169810000Y-114191928D01*
X169810000Y-114160000D01*
X175401928Y-114160000D01*
X175405000Y-114774250D01*
X175563750Y-114933000D01*
X176813000Y-114933000D01*
X176813000Y-113683750D01*
X176654250Y-113525000D01*
X176040000Y-113521928D01*
X175915518Y-113534188D01*
X175795820Y-113570498D01*
X175685506Y-113629463D01*
X175588815Y-113708815D01*
X175509463Y-113805506D01*
X175450498Y-113915820D01*
X175414188Y-114035518D01*
X175401928Y-114160000D01*
X169810000Y-114160000D01*
X169810000Y-111818072D01*
X170640000Y-111818072D01*
X170764482Y-111805812D01*
X170884180Y-111769502D01*
X170994494Y-111710537D01*
X171091185Y-111631185D01*
X171170537Y-111534494D01*
X171229502Y-111424180D01*
X171235056Y-111405873D01*
X171301495Y-111472312D01*
X171552905Y-111640299D01*
X171832257Y-111756011D01*
X172128816Y-111815000D01*
X172431184Y-111815000D01*
X172727743Y-111756011D01*
X173007095Y-111640299D01*
X173258505Y-111472312D01*
X173472312Y-111258505D01*
X173640299Y-111007095D01*
X173756011Y-110727743D01*
X173815000Y-110431184D01*
X173815000Y-110128816D01*
X173756011Y-109832257D01*
X173640299Y-109552905D01*
X173472312Y-109301495D01*
X173258505Y-109087688D01*
X173007095Y-108919701D01*
X172727743Y-108803989D01*
X172431184Y-108745000D01*
X172128816Y-108745000D01*
X171832257Y-108803989D01*
X171552905Y-108919701D01*
X171301495Y-109087688D01*
X171235056Y-109154127D01*
X171229502Y-109135820D01*
X171170537Y-109025506D01*
X171091185Y-108928815D01*
X170994494Y-108849463D01*
X170884180Y-108790498D01*
X170764482Y-108754188D01*
X170640000Y-108741928D01*
X168840000Y-108741928D01*
X168715518Y-108754188D01*
X168595820Y-108790498D01*
X168485506Y-108849463D01*
X168388815Y-108928815D01*
X168309463Y-109025506D01*
X168250498Y-109135820D01*
X168214188Y-109255518D01*
X168201928Y-109380000D01*
X168201928Y-111180000D01*
X168214188Y-111304482D01*
X168250498Y-111424180D01*
X168290001Y-111498084D01*
X168290000Y-114191928D01*
X168200000Y-114191928D01*
X168075518Y-114204188D01*
X167955820Y-114240498D01*
X167845506Y-114299463D01*
X167748815Y-114378815D01*
X167669463Y-114475506D01*
X167610498Y-114585820D01*
X167574188Y-114705518D01*
X167561928Y-114830000D01*
X167561928Y-116530000D01*
X167574188Y-116654482D01*
X167610498Y-116774180D01*
X167669463Y-116884494D01*
X167673982Y-116890000D01*
X166105001Y-116890000D01*
X166105001Y-112922776D01*
X166196014Y-112861963D01*
X166381963Y-112676014D01*
X166528062Y-112457360D01*
X166628697Y-112214406D01*
X166680001Y-111956487D01*
X166680001Y-111693515D01*
X166628697Y-111435596D01*
X166528062Y-111192642D01*
X166381963Y-110973988D01*
X166196014Y-110788039D01*
X165977360Y-110641940D01*
X165734406Y-110541305D01*
X165476487Y-110490001D01*
X165213515Y-110490001D01*
X164955596Y-110541305D01*
X164712642Y-110641940D01*
X164493988Y-110788039D01*
X164308039Y-110973988D01*
X164161940Y-111192642D01*
X164061305Y-111435596D01*
X164010001Y-111693515D01*
X164010001Y-111956487D01*
X164061305Y-112214406D01*
X164161940Y-112457360D01*
X164308039Y-112676014D01*
X164493988Y-112861963D01*
X164585001Y-112922776D01*
X164585001Y-114484184D01*
X164433506Y-114332689D01*
X164182096Y-114164702D01*
X163902744Y-114048990D01*
X163606185Y-113990001D01*
X163303817Y-113990001D01*
X163007258Y-114048990D01*
X162727906Y-114164702D01*
X162476496Y-114332689D01*
X162410057Y-114399128D01*
X162404503Y-114380821D01*
X162345538Y-114270507D01*
X162266186Y-114173816D01*
X162169495Y-114094464D01*
X162059181Y-114035499D01*
X161939483Y-113999189D01*
X161815001Y-113986929D01*
X160015001Y-113986929D01*
X159890519Y-113999189D01*
X159770821Y-114035499D01*
X159660507Y-114094464D01*
X159563816Y-114173816D01*
X159484464Y-114270507D01*
X159425499Y-114380821D01*
X159389189Y-114500519D01*
X159376929Y-114625001D01*
X139660000Y-114625001D01*
X139660000Y-111693515D01*
X158930001Y-111693515D01*
X158930001Y-111956487D01*
X158981305Y-112214406D01*
X159081940Y-112457360D01*
X159228039Y-112676014D01*
X159413988Y-112861963D01*
X159632642Y-113008062D01*
X159875596Y-113108697D01*
X160133515Y-113160001D01*
X160396487Y-113160001D01*
X160654406Y-113108697D01*
X160897360Y-113008062D01*
X161116014Y-112861963D01*
X161301963Y-112676014D01*
X161448062Y-112457360D01*
X161548697Y-112214406D01*
X161600001Y-111956487D01*
X161600001Y-111693515D01*
X161548697Y-111435596D01*
X161448062Y-111192642D01*
X161301963Y-110973988D01*
X161116014Y-110788039D01*
X160897360Y-110641940D01*
X160654406Y-110541305D01*
X160396487Y-110490001D01*
X160133515Y-110490001D01*
X159875596Y-110541305D01*
X159632642Y-110641940D01*
X159413988Y-110788039D01*
X159228039Y-110973988D01*
X159081940Y-111192642D01*
X158981305Y-111435596D01*
X158930001Y-111693515D01*
X139660000Y-111693515D01*
X139660000Y-99924080D01*
X147455525Y-99924080D01*
X147539208Y-100178261D01*
X147811775Y-100309158D01*
X148104642Y-100384365D01*
X148406553Y-100400991D01*
X148705907Y-100358397D01*
X148991199Y-100258222D01*
X149140792Y-100178261D01*
X149224475Y-99924080D01*
X148340000Y-99039605D01*
X147455525Y-99924080D01*
X139660000Y-99924080D01*
X139660000Y-98926553D01*
X146799009Y-98926553D01*
X146841603Y-99225907D01*
X146941778Y-99511199D01*
X147021739Y-99660792D01*
X147275920Y-99744475D01*
X148160395Y-98860000D01*
X148519605Y-98860000D01*
X149404080Y-99744475D01*
X149658261Y-99660792D01*
X149789158Y-99388225D01*
X149864365Y-99095358D01*
X149880991Y-98793447D01*
X149838397Y-98494093D01*
X149738222Y-98208801D01*
X149658261Y-98059208D01*
X149404080Y-97975525D01*
X148519605Y-98860000D01*
X148160395Y-98860000D01*
X147275920Y-97975525D01*
X147021739Y-98059208D01*
X146890842Y-98331775D01*
X146815635Y-98624642D01*
X146799009Y-98926553D01*
X139660000Y-98926553D01*
X139660000Y-93708816D01*
X146805000Y-93708816D01*
X146805000Y-94011184D01*
X146863989Y-94307743D01*
X146979701Y-94587095D01*
X147147688Y-94838505D01*
X147361495Y-95052312D01*
X147447831Y-95110000D01*
X147361495Y-95167688D01*
X147147688Y-95381495D01*
X146979701Y-95632905D01*
X146863989Y-95912257D01*
X146805000Y-96208816D01*
X146805000Y-96511184D01*
X146863989Y-96807743D01*
X146979701Y-97087095D01*
X147147688Y-97338505D01*
X147361495Y-97552312D01*
X147504310Y-97647738D01*
X147455525Y-97795920D01*
X148340000Y-98680395D01*
X149224475Y-97795920D01*
X149175690Y-97647738D01*
X149318505Y-97552312D01*
X149510817Y-97360000D01*
X150122689Y-97360000D01*
X150122795Y-97360256D01*
X150236063Y-97529774D01*
X150380226Y-97673937D01*
X150549744Y-97787205D01*
X150738102Y-97865226D01*
X150938061Y-97905000D01*
X151120000Y-97905000D01*
X151120001Y-105845197D01*
X151005198Y-105960001D01*
X150823073Y-105960001D01*
X150823073Y-105170000D01*
X150806009Y-104996746D01*
X150755473Y-104830150D01*
X150673406Y-104676614D01*
X150562963Y-104542039D01*
X150428388Y-104431596D01*
X150274852Y-104349529D01*
X150108256Y-104298993D01*
X149935002Y-104281929D01*
X148355000Y-104281929D01*
X148181746Y-104298993D01*
X148015150Y-104349529D01*
X147861614Y-104431596D01*
X147727039Y-104542039D01*
X147616596Y-104676614D01*
X147534529Y-104830150D01*
X147483993Y-104996746D01*
X147466929Y-105170000D01*
X147466929Y-108270002D01*
X147483993Y-108443256D01*
X147534529Y-108609852D01*
X147616596Y-108763388D01*
X147727039Y-108897963D01*
X147861614Y-109008406D01*
X148015150Y-109090473D01*
X148181746Y-109141009D01*
X148355000Y-109158073D01*
X149935002Y-109158073D01*
X150108256Y-109141009D01*
X150274852Y-109090473D01*
X150428388Y-109008406D01*
X150562963Y-108897963D01*
X150673406Y-108763388D01*
X150755473Y-108609852D01*
X150806009Y-108443256D01*
X150823073Y-108270002D01*
X150823073Y-107480001D01*
X151282677Y-107480001D01*
X151319999Y-107483677D01*
X151357321Y-107480001D01*
X151357332Y-107480001D01*
X151468985Y-107469004D01*
X151612246Y-107425547D01*
X151744275Y-107354975D01*
X151860000Y-107260002D01*
X151883802Y-107230999D01*
X152267800Y-106847001D01*
X152550001Y-106847001D01*
X152550001Y-107607001D01*
X152606962Y-107931337D01*
X152726103Y-108238328D01*
X152902846Y-108516177D01*
X153130399Y-108754207D01*
X153400017Y-108943270D01*
X153701338Y-109076100D01*
X153838291Y-109109749D01*
X154098001Y-108990923D01*
X154098001Y-106847001D01*
X154352001Y-106847001D01*
X154352001Y-108990923D01*
X154611711Y-109109749D01*
X154748664Y-109076100D01*
X155049985Y-108943270D01*
X155319603Y-108754207D01*
X155521021Y-108543515D01*
X158930001Y-108543515D01*
X158930001Y-108806487D01*
X158981305Y-109064406D01*
X159081940Y-109307360D01*
X159228039Y-109526014D01*
X159413988Y-109711963D01*
X159632642Y-109858062D01*
X159875596Y-109958697D01*
X160133515Y-110010001D01*
X160396487Y-110010001D01*
X160654406Y-109958697D01*
X160897360Y-109858062D01*
X161116014Y-109711963D01*
X161301963Y-109526014D01*
X161448062Y-109307360D01*
X161548697Y-109064406D01*
X161600001Y-108806487D01*
X161600001Y-108543515D01*
X161548697Y-108285596D01*
X161448062Y-108042642D01*
X161301963Y-107823988D01*
X161116014Y-107638039D01*
X160897360Y-107491940D01*
X160654406Y-107391305D01*
X160396487Y-107340001D01*
X160133515Y-107340001D01*
X159875596Y-107391305D01*
X159632642Y-107491940D01*
X159413988Y-107638039D01*
X159228039Y-107823988D01*
X159081940Y-108042642D01*
X158981305Y-108285596D01*
X158930001Y-108543515D01*
X155521021Y-108543515D01*
X155547156Y-108516177D01*
X155723899Y-108238328D01*
X155843040Y-107931337D01*
X155900001Y-107607001D01*
X155900001Y-106847001D01*
X154352001Y-106847001D01*
X154098001Y-106847001D01*
X152550001Y-106847001D01*
X152267800Y-106847001D01*
X152391002Y-106723800D01*
X152420001Y-106700001D01*
X152507814Y-106593001D01*
X152514974Y-106584277D01*
X152550001Y-106518747D01*
X152550001Y-106593001D01*
X154098001Y-106593001D01*
X154098001Y-106573001D01*
X154352001Y-106573001D01*
X154352001Y-106593001D01*
X155900001Y-106593001D01*
X155900001Y-105833001D01*
X155843040Y-105508665D01*
X155723899Y-105201674D01*
X155547156Y-104923825D01*
X155319603Y-104685795D01*
X155049985Y-104496732D01*
X154943975Y-104450000D01*
X159470918Y-104450000D01*
X159413988Y-104488039D01*
X159228039Y-104673988D01*
X159081940Y-104892642D01*
X158981305Y-105135596D01*
X158930001Y-105393515D01*
X158930001Y-105656487D01*
X158981305Y-105914406D01*
X159081940Y-106157360D01*
X159228039Y-106376014D01*
X159413988Y-106561963D01*
X159632642Y-106708062D01*
X159875596Y-106808697D01*
X160133515Y-106860001D01*
X160396487Y-106860001D01*
X160654406Y-106808697D01*
X160897360Y-106708062D01*
X161116014Y-106561963D01*
X161301963Y-106376014D01*
X161448062Y-106157360D01*
X161548697Y-105914406D01*
X161600001Y-105656487D01*
X161600001Y-105393515D01*
X164010001Y-105393515D01*
X164010001Y-105656487D01*
X164061305Y-105914406D01*
X164161940Y-106157360D01*
X164308039Y-106376014D01*
X164493988Y-106561963D01*
X164712642Y-106708062D01*
X164955596Y-106808697D01*
X165213515Y-106860001D01*
X165476487Y-106860001D01*
X165734406Y-106808697D01*
X165977360Y-106708062D01*
X166170000Y-106579345D01*
X166170000Y-107620657D01*
X165977360Y-107491940D01*
X165734406Y-107391305D01*
X165476487Y-107340001D01*
X165213515Y-107340001D01*
X164955596Y-107391305D01*
X164712642Y-107491940D01*
X164493988Y-107638039D01*
X164308039Y-107823988D01*
X164161940Y-108042642D01*
X164061305Y-108285596D01*
X164010001Y-108543515D01*
X164010001Y-108806487D01*
X164061305Y-109064406D01*
X164161940Y-109307360D01*
X164308039Y-109526014D01*
X164493988Y-109711963D01*
X164712642Y-109858062D01*
X164955596Y-109958697D01*
X165213515Y-110010001D01*
X165476487Y-110010001D01*
X165734406Y-109958697D01*
X165977360Y-109858062D01*
X166196014Y-109711963D01*
X166381963Y-109526014D01*
X166445625Y-109430737D01*
X166513985Y-109424004D01*
X166657246Y-109380547D01*
X166789275Y-109309975D01*
X166905000Y-109215002D01*
X166928802Y-109185999D01*
X167441004Y-108673798D01*
X167470001Y-108650001D01*
X167502950Y-108609852D01*
X167564974Y-108534277D01*
X167593985Y-108480000D01*
X175261928Y-108480000D01*
X175274188Y-108604482D01*
X175310498Y-108724180D01*
X175369463Y-108834494D01*
X175448815Y-108931185D01*
X175545506Y-109010537D01*
X175655820Y-109069502D01*
X175775518Y-109105812D01*
X175900000Y-109118072D01*
X176514250Y-109115000D01*
X176673000Y-108956250D01*
X176673000Y-107707000D01*
X175423750Y-107707000D01*
X175265000Y-107865750D01*
X175261928Y-108480000D01*
X167593985Y-108480000D01*
X167635546Y-108402247D01*
X167641459Y-108382754D01*
X167679003Y-108258986D01*
X167690000Y-108147333D01*
X167690000Y-108147324D01*
X167693676Y-108110001D01*
X167690000Y-108072678D01*
X167690000Y-106719394D01*
X167905596Y-106808697D01*
X168163515Y-106860001D01*
X168426487Y-106860001D01*
X168684406Y-106808697D01*
X168927360Y-106708062D01*
X169146014Y-106561963D01*
X169331963Y-106376014D01*
X169478062Y-106157360D01*
X169578697Y-105914406D01*
X169630001Y-105656487D01*
X169630001Y-105393515D01*
X169578697Y-105135596D01*
X169478062Y-104892642D01*
X169331963Y-104673988D01*
X169146014Y-104488039D01*
X169089084Y-104450000D01*
X172580918Y-104450000D01*
X172523988Y-104488039D01*
X172338039Y-104673988D01*
X172191940Y-104892642D01*
X172091305Y-105135596D01*
X172040001Y-105393515D01*
X172040001Y-105656487D01*
X172091305Y-105914406D01*
X172191940Y-106157360D01*
X172338039Y-106376014D01*
X172523988Y-106561963D01*
X172742642Y-106708062D01*
X172985596Y-106808697D01*
X173243515Y-106860001D01*
X173506487Y-106860001D01*
X173764406Y-106808697D01*
X174007360Y-106708062D01*
X174049358Y-106680000D01*
X175261928Y-106680000D01*
X175265000Y-107294250D01*
X175423750Y-107453000D01*
X176673000Y-107453000D01*
X176673000Y-106203750D01*
X176927000Y-106203750D01*
X176927000Y-107453000D01*
X176947000Y-107453000D01*
X176947000Y-107707000D01*
X176927000Y-107707000D01*
X176927000Y-108956250D01*
X177085750Y-109115000D01*
X177700000Y-109118072D01*
X177824482Y-109105812D01*
X177944180Y-109069502D01*
X178054494Y-109010537D01*
X178151185Y-108931185D01*
X178230537Y-108834494D01*
X178289502Y-108724180D01*
X178295056Y-108705873D01*
X178361495Y-108772312D01*
X178612905Y-108940299D01*
X178892257Y-109056011D01*
X179188816Y-109115000D01*
X179491184Y-109115000D01*
X179787743Y-109056011D01*
X180067095Y-108940299D01*
X180318505Y-108772312D01*
X180532312Y-108558505D01*
X180700299Y-108307095D01*
X180816011Y-108027743D01*
X180875000Y-107731184D01*
X180875000Y-107428816D01*
X180816011Y-107132257D01*
X180700299Y-106852905D01*
X180532312Y-106601495D01*
X180318505Y-106387688D01*
X180067095Y-106219701D01*
X179787743Y-106103989D01*
X179491184Y-106045000D01*
X179188816Y-106045000D01*
X178892257Y-106103989D01*
X178612905Y-106219701D01*
X178361495Y-106387688D01*
X178295056Y-106454127D01*
X178289502Y-106435820D01*
X178230537Y-106325506D01*
X178151185Y-106228815D01*
X178054494Y-106149463D01*
X177944180Y-106090498D01*
X177824482Y-106054188D01*
X177700000Y-106041928D01*
X177085750Y-106045000D01*
X176927000Y-106203750D01*
X176673000Y-106203750D01*
X176514250Y-106045000D01*
X175900000Y-106041928D01*
X175775518Y-106054188D01*
X175655820Y-106090498D01*
X175545506Y-106149463D01*
X175448815Y-106228815D01*
X175369463Y-106325506D01*
X175310498Y-106435820D01*
X175274188Y-106555518D01*
X175261928Y-106680000D01*
X174049358Y-106680000D01*
X174226014Y-106561963D01*
X174411963Y-106376014D01*
X174558062Y-106157360D01*
X174658697Y-105914406D01*
X174710001Y-105656487D01*
X174710001Y-105393515D01*
X174658697Y-105135596D01*
X174558062Y-104892642D01*
X174411963Y-104673988D01*
X174226014Y-104488039D01*
X174169084Y-104450000D01*
X178542678Y-104450000D01*
X178580000Y-104453676D01*
X178617322Y-104450000D01*
X178617333Y-104450000D01*
X178728986Y-104439003D01*
X178872247Y-104395546D01*
X179004276Y-104324974D01*
X179120001Y-104230001D01*
X179143803Y-104200998D01*
X179791009Y-103553794D01*
X179820001Y-103530001D01*
X179843795Y-103501008D01*
X179843799Y-103501004D01*
X179914973Y-103414277D01*
X179914974Y-103414276D01*
X179985546Y-103282247D01*
X180029003Y-103138986D01*
X180040000Y-103027333D01*
X180040000Y-103027324D01*
X180043676Y-102990001D01*
X180040000Y-102952678D01*
X180040000Y-102300000D01*
X182381928Y-102300000D01*
X182381928Y-104000000D01*
X182394188Y-104124482D01*
X182430498Y-104244180D01*
X182489463Y-104354494D01*
X182568815Y-104451185D01*
X182665506Y-104530537D01*
X182775820Y-104589502D01*
X182895518Y-104625812D01*
X183020000Y-104638072D01*
X184720000Y-104638072D01*
X184844482Y-104625812D01*
X184964180Y-104589502D01*
X185074494Y-104530537D01*
X185171185Y-104451185D01*
X185250537Y-104354494D01*
X185309502Y-104244180D01*
X185345812Y-104124482D01*
X185358072Y-104000000D01*
X185358072Y-102300000D01*
X185345812Y-102175518D01*
X185309502Y-102055820D01*
X185250537Y-101945506D01*
X185171185Y-101848815D01*
X185074494Y-101769463D01*
X184964180Y-101710498D01*
X184883534Y-101686034D01*
X184967588Y-101610269D01*
X185141641Y-101376920D01*
X185266825Y-101114099D01*
X185311476Y-100966890D01*
X185190155Y-100737000D01*
X183997000Y-100737000D01*
X183997000Y-100757000D01*
X183743000Y-100757000D01*
X183743000Y-100737000D01*
X182549845Y-100737000D01*
X182428524Y-100966890D01*
X182473175Y-101114099D01*
X182598359Y-101376920D01*
X182772412Y-101610269D01*
X182856466Y-101686034D01*
X182775820Y-101710498D01*
X182665506Y-101769463D01*
X182568815Y-101848815D01*
X182489463Y-101945506D01*
X182430498Y-102055820D01*
X182394188Y-102175518D01*
X182381928Y-102300000D01*
X180040000Y-102300000D01*
X180040000Y-102278313D01*
X180258505Y-102132312D01*
X180472312Y-101918505D01*
X180640299Y-101667095D01*
X180756011Y-101387743D01*
X180815000Y-101091184D01*
X180815000Y-100788816D01*
X180756011Y-100492257D01*
X180656953Y-100253110D01*
X182428524Y-100253110D01*
X182549845Y-100483000D01*
X183743000Y-100483000D01*
X183743000Y-99289186D01*
X183997000Y-99289186D01*
X183997000Y-100483000D01*
X185190155Y-100483000D01*
X185311476Y-100253110D01*
X185266825Y-100105901D01*
X185141641Y-99843080D01*
X184967588Y-99609731D01*
X184751355Y-99414822D01*
X184501252Y-99265843D01*
X184226891Y-99168519D01*
X183997000Y-99289186D01*
X183743000Y-99289186D01*
X183513109Y-99168519D01*
X183238748Y-99265843D01*
X182988645Y-99414822D01*
X182772412Y-99609731D01*
X182598359Y-99843080D01*
X182473175Y-100105901D01*
X182428524Y-100253110D01*
X180656953Y-100253110D01*
X180640299Y-100212905D01*
X180472312Y-99961495D01*
X180258505Y-99747688D01*
X180007095Y-99579701D01*
X179727743Y-99463989D01*
X179431184Y-99405000D01*
X179128816Y-99405000D01*
X178832257Y-99463989D01*
X178552905Y-99579701D01*
X178301495Y-99747688D01*
X178235056Y-99814127D01*
X178229502Y-99795820D01*
X178170537Y-99685506D01*
X178091185Y-99588815D01*
X177994494Y-99509463D01*
X177884180Y-99450498D01*
X177764482Y-99414188D01*
X177640000Y-99401928D01*
X175840000Y-99401928D01*
X175715518Y-99414188D01*
X175595820Y-99450498D01*
X175485506Y-99509463D01*
X175388815Y-99588815D01*
X175309463Y-99685506D01*
X175250498Y-99795820D01*
X175214188Y-99915518D01*
X175201928Y-100040000D01*
X175201928Y-101840000D01*
X175214188Y-101964482D01*
X175250498Y-102084180D01*
X175309463Y-102194494D01*
X175388815Y-102291185D01*
X175485506Y-102370537D01*
X175595820Y-102429502D01*
X175715518Y-102465812D01*
X175840000Y-102478072D01*
X177640000Y-102478072D01*
X177764482Y-102465812D01*
X177884180Y-102429502D01*
X177994494Y-102370537D01*
X178091185Y-102291185D01*
X178170537Y-102194494D01*
X178229502Y-102084180D01*
X178235056Y-102065873D01*
X178301495Y-102132312D01*
X178520000Y-102278313D01*
X178520000Y-102675197D01*
X178265198Y-102930000D01*
X173721636Y-102930000D01*
X173801013Y-102876962D01*
X173986962Y-102691013D01*
X174133061Y-102472359D01*
X174233696Y-102229405D01*
X174285000Y-101971486D01*
X174285000Y-101708514D01*
X174233696Y-101450595D01*
X174133061Y-101207641D01*
X173986962Y-100988987D01*
X173801013Y-100803038D01*
X173582359Y-100656939D01*
X173339405Y-100556304D01*
X173081486Y-100505000D01*
X172818514Y-100505000D01*
X172560595Y-100556304D01*
X172317641Y-100656939D01*
X172098987Y-100803038D01*
X171913038Y-100988987D01*
X171766939Y-101207641D01*
X171666304Y-101450595D01*
X171615000Y-101708514D01*
X171615000Y-101971486D01*
X171666304Y-102229405D01*
X171766939Y-102472359D01*
X171913038Y-102691013D01*
X172098987Y-102876962D01*
X172178364Y-102930000D01*
X168641636Y-102930000D01*
X168721013Y-102876962D01*
X168906962Y-102691013D01*
X169053061Y-102472359D01*
X169153696Y-102229405D01*
X169205000Y-101971486D01*
X169205000Y-101708514D01*
X169153696Y-101450595D01*
X169053061Y-101207641D01*
X168906962Y-100988987D01*
X168721013Y-100803038D01*
X168502359Y-100656939D01*
X168259405Y-100556304D01*
X168001486Y-100505000D01*
X167738514Y-100505000D01*
X167480595Y-100556304D01*
X167237641Y-100656939D01*
X167018987Y-100803038D01*
X166833038Y-100988987D01*
X166686939Y-101207641D01*
X166586304Y-101450595D01*
X166535000Y-101708514D01*
X166535000Y-101971486D01*
X166586304Y-102229405D01*
X166686939Y-102472359D01*
X166833038Y-102691013D01*
X167018987Y-102876962D01*
X167201146Y-102998676D01*
X167095723Y-103055026D01*
X167012083Y-103123668D01*
X166979999Y-103149999D01*
X166956201Y-103178997D01*
X166418998Y-103716201D01*
X166390000Y-103739999D01*
X166366202Y-103768997D01*
X166366201Y-103768998D01*
X166295026Y-103855724D01*
X166224454Y-103987754D01*
X166215380Y-104017669D01*
X166182980Y-104124482D01*
X166180998Y-104131015D01*
X166166324Y-104280000D01*
X166170001Y-104317332D01*
X166170001Y-104470658D01*
X165977360Y-104341940D01*
X165734406Y-104241305D01*
X165476487Y-104190001D01*
X165213515Y-104190001D01*
X164955596Y-104241305D01*
X164712642Y-104341940D01*
X164493988Y-104488039D01*
X164308039Y-104673988D01*
X164161940Y-104892642D01*
X164061305Y-105135596D01*
X164010001Y-105393515D01*
X161600001Y-105393515D01*
X161548697Y-105135596D01*
X161448062Y-104892642D01*
X161301963Y-104673988D01*
X161116014Y-104488039D01*
X161025001Y-104427226D01*
X161025001Y-104092323D01*
X161028677Y-104055000D01*
X161025001Y-104017677D01*
X161025001Y-104017668D01*
X161014004Y-103906015D01*
X160970547Y-103762754D01*
X160899975Y-103630725D01*
X160805002Y-103515000D01*
X160775999Y-103491198D01*
X160463804Y-103179003D01*
X160440001Y-103149999D01*
X160324276Y-103055026D01*
X160192247Y-102984454D01*
X160048986Y-102940997D01*
X159937333Y-102930000D01*
X159937322Y-102930000D01*
X159900000Y-102926324D01*
X159862678Y-102930000D01*
X153314802Y-102930000D01*
X153220000Y-102835199D01*
X153220000Y-100834802D01*
X153286200Y-100901002D01*
X153309999Y-100930001D01*
X153425724Y-101024974D01*
X153557753Y-101095546D01*
X153701014Y-101139003D01*
X153713899Y-101140272D01*
X153741068Y-101191101D01*
X153920392Y-101409608D01*
X154138899Y-101588932D01*
X154388192Y-101722182D01*
X154658691Y-101804236D01*
X154869508Y-101825000D01*
X155810492Y-101825000D01*
X156021309Y-101804236D01*
X156291808Y-101722182D01*
X156541101Y-101588932D01*
X156759608Y-101409608D01*
X156938932Y-101191101D01*
X157072182Y-100941808D01*
X157133690Y-100739039D01*
X161168096Y-100739039D01*
X161185633Y-100821818D01*
X161296285Y-101081646D01*
X161455500Y-101314895D01*
X161657161Y-101512601D01*
X161893517Y-101667166D01*
X162155486Y-101772650D01*
X162433000Y-101825000D01*
X162833000Y-101825000D01*
X162833000Y-100517000D01*
X163087000Y-100517000D01*
X163087000Y-101825000D01*
X163487000Y-101825000D01*
X163764514Y-101772650D01*
X164026483Y-101667166D01*
X164262839Y-101512601D01*
X164464500Y-101314895D01*
X164623715Y-101081646D01*
X164734367Y-100821818D01*
X164751904Y-100739039D01*
X164629915Y-100517000D01*
X163087000Y-100517000D01*
X162833000Y-100517000D01*
X161290085Y-100517000D01*
X161168096Y-100739039D01*
X157133690Y-100739039D01*
X157154236Y-100671309D01*
X157181943Y-100390000D01*
X157154236Y-100108691D01*
X157072182Y-99838192D01*
X156938932Y-99588899D01*
X156759608Y-99370392D01*
X156541101Y-99191068D01*
X156408142Y-99120000D01*
X156541101Y-99048932D01*
X156759608Y-98869608D01*
X156938932Y-98651101D01*
X157072182Y-98401808D01*
X157154236Y-98131309D01*
X157181943Y-97850000D01*
X157154236Y-97568691D01*
X157072182Y-97298192D01*
X156938932Y-97048899D01*
X156759608Y-96830392D01*
X156541101Y-96651068D01*
X156408142Y-96580000D01*
X156541101Y-96508932D01*
X156759608Y-96329608D01*
X156938932Y-96111101D01*
X157072182Y-95861808D01*
X157154236Y-95591309D01*
X157181943Y-95310000D01*
X157154236Y-95028691D01*
X157072182Y-94758192D01*
X156938932Y-94508899D01*
X156759608Y-94290392D01*
X156646518Y-94197581D01*
X156664482Y-94195812D01*
X156784180Y-94159502D01*
X156894494Y-94100537D01*
X156991185Y-94021185D01*
X157070537Y-93924494D01*
X157129502Y-93814180D01*
X157165812Y-93694482D01*
X157178072Y-93570000D01*
X157175000Y-93055750D01*
X157016250Y-92897000D01*
X155467000Y-92897000D01*
X155467000Y-92917000D01*
X155213000Y-92917000D01*
X155213000Y-92897000D01*
X153663750Y-92897000D01*
X153505000Y-93055750D01*
X153501928Y-93570000D01*
X153514188Y-93694482D01*
X153550498Y-93814180D01*
X153609463Y-93924494D01*
X153688815Y-94021185D01*
X153785506Y-94100537D01*
X153895820Y-94159502D01*
X154015518Y-94195812D01*
X154033482Y-94197581D01*
X153920392Y-94290392D01*
X153741068Y-94508899D01*
X153719099Y-94550000D01*
X153225366Y-94550000D01*
X153245546Y-94512247D01*
X153289003Y-94368986D01*
X153300000Y-94257333D01*
X153300000Y-94257324D01*
X153303676Y-94220001D01*
X153300000Y-94182678D01*
X153300000Y-91970000D01*
X153501928Y-91970000D01*
X153505000Y-92484250D01*
X153663750Y-92643000D01*
X155213000Y-92643000D01*
X155213000Y-91493750D01*
X155467000Y-91493750D01*
X155467000Y-92643000D01*
X157016250Y-92643000D01*
X157175000Y-92484250D01*
X157178072Y-91970000D01*
X157165812Y-91845518D01*
X157129502Y-91725820D01*
X157070537Y-91615506D01*
X156991185Y-91518815D01*
X156894494Y-91439463D01*
X156784180Y-91380498D01*
X156664482Y-91344188D01*
X156540000Y-91331928D01*
X155625750Y-91335000D01*
X155467000Y-91493750D01*
X155213000Y-91493750D01*
X155054250Y-91335000D01*
X154140000Y-91331928D01*
X154015518Y-91344188D01*
X153895820Y-91380498D01*
X153785506Y-91439463D01*
X153688815Y-91518815D01*
X153609463Y-91615506D01*
X153550498Y-91725820D01*
X153514188Y-91845518D01*
X153501928Y-91970000D01*
X153300000Y-91970000D01*
X153300000Y-91170000D01*
X162200001Y-91170000D01*
X162200001Y-91379634D01*
X162008192Y-91437818D01*
X161758899Y-91571068D01*
X161540392Y-91750392D01*
X161361068Y-91968899D01*
X161227818Y-92218192D01*
X161145764Y-92488691D01*
X161118057Y-92770000D01*
X161145764Y-93051309D01*
X161227818Y-93321808D01*
X161361068Y-93571101D01*
X161540392Y-93789608D01*
X161758899Y-93968932D01*
X161891858Y-94040000D01*
X161758899Y-94111068D01*
X161540392Y-94290392D01*
X161361068Y-94508899D01*
X161227818Y-94758192D01*
X161145764Y-95028691D01*
X161118057Y-95310000D01*
X161145764Y-95591309D01*
X161227818Y-95861808D01*
X161361068Y-96111101D01*
X161540392Y-96329608D01*
X161758899Y-96508932D01*
X161891858Y-96580000D01*
X161758899Y-96651068D01*
X161540392Y-96830392D01*
X161361068Y-97048899D01*
X161227818Y-97298192D01*
X161145764Y-97568691D01*
X161118057Y-97850000D01*
X161145764Y-98131309D01*
X161227818Y-98401808D01*
X161361068Y-98651101D01*
X161540392Y-98869608D01*
X161758899Y-99048932D01*
X161886741Y-99117265D01*
X161657161Y-99267399D01*
X161455500Y-99465105D01*
X161296285Y-99698354D01*
X161185633Y-99958182D01*
X161168096Y-100040961D01*
X161290085Y-100263000D01*
X162833000Y-100263000D01*
X162833000Y-100243000D01*
X163087000Y-100243000D01*
X163087000Y-100263000D01*
X164629915Y-100263000D01*
X164751904Y-100040961D01*
X164734367Y-99958182D01*
X164623715Y-99698354D01*
X164464500Y-99465105D01*
X164262839Y-99267399D01*
X164033259Y-99117265D01*
X164161101Y-99048932D01*
X164379608Y-98869608D01*
X164558932Y-98651101D01*
X164692182Y-98401808D01*
X164774236Y-98131309D01*
X164801943Y-97850000D01*
X164774236Y-97568691D01*
X164692182Y-97298192D01*
X164558932Y-97048899D01*
X164379608Y-96830392D01*
X164161101Y-96651068D01*
X164028142Y-96580000D01*
X164161101Y-96508932D01*
X164379608Y-96329608D01*
X164558932Y-96111101D01*
X164662355Y-95917609D01*
X167866538Y-95917609D01*
X167872523Y-95960162D01*
X167965604Y-96184907D01*
X168100742Y-96387174D01*
X168272744Y-96559191D01*
X168475000Y-96694346D01*
X168699737Y-96787446D01*
X168938319Y-96834913D01*
X169047083Y-96748363D01*
X169295000Y-96748363D01*
X169295000Y-96991637D01*
X169342460Y-97230236D01*
X169435557Y-97454992D01*
X169570713Y-97657267D01*
X169742733Y-97829287D01*
X169945008Y-97964443D01*
X170169764Y-98057540D01*
X170408363Y-98105000D01*
X170651637Y-98105000D01*
X170890236Y-98057540D01*
X171114992Y-97964443D01*
X171317267Y-97829287D01*
X171489287Y-97657267D01*
X171624443Y-97454992D01*
X171717540Y-97230236D01*
X171765000Y-96991637D01*
X171765000Y-96835000D01*
X171921637Y-96835000D01*
X172160236Y-96787540D01*
X172384992Y-96694443D01*
X172587267Y-96559287D01*
X172759287Y-96387267D01*
X172894443Y-96184992D01*
X172987540Y-95960236D01*
X173035000Y-95721637D01*
X173035000Y-95478363D01*
X172991566Y-95260000D01*
X175061928Y-95260000D01*
X175074188Y-95384482D01*
X175110498Y-95504180D01*
X175169463Y-95614494D01*
X175248815Y-95711185D01*
X175345506Y-95790537D01*
X175455820Y-95849502D01*
X175575518Y-95885812D01*
X175700000Y-95898072D01*
X176314250Y-95895000D01*
X176473000Y-95736250D01*
X176473000Y-94487000D01*
X175223750Y-94487000D01*
X175065000Y-94645750D01*
X175061928Y-95260000D01*
X172991566Y-95260000D01*
X172987540Y-95239764D01*
X172894443Y-95015008D01*
X172759287Y-94812733D01*
X172587267Y-94640713D01*
X172384992Y-94505557D01*
X172160236Y-94412460D01*
X171921637Y-94365000D01*
X171678363Y-94365000D01*
X171439764Y-94412460D01*
X171215008Y-94505557D01*
X171012733Y-94640713D01*
X170840713Y-94812733D01*
X170705557Y-95015008D01*
X170629954Y-95197529D01*
X170554396Y-95015093D01*
X170419258Y-94812826D01*
X170247256Y-94640809D01*
X170045000Y-94505654D01*
X169820263Y-94412554D01*
X169581681Y-94365087D01*
X169387000Y-94520006D01*
X169387000Y-95473000D01*
X169407000Y-95473000D01*
X169407000Y-95727000D01*
X169387000Y-95727000D01*
X169387000Y-96402235D01*
X169342460Y-96509764D01*
X169295000Y-96748363D01*
X169047083Y-96748363D01*
X169133000Y-96679994D01*
X169133000Y-95727000D01*
X167991269Y-95727000D01*
X167866538Y-95917609D01*
X164662355Y-95917609D01*
X164692182Y-95861808D01*
X164774236Y-95591309D01*
X164801943Y-95310000D01*
X164799224Y-95282391D01*
X167866538Y-95282391D01*
X167991269Y-95473000D01*
X169133000Y-95473000D01*
X169133000Y-94520006D01*
X168938319Y-94365087D01*
X168699737Y-94412554D01*
X168475000Y-94505654D01*
X168272744Y-94640809D01*
X168100742Y-94812826D01*
X167965604Y-95015093D01*
X167872523Y-95239838D01*
X167866538Y-95282391D01*
X164799224Y-95282391D01*
X164774236Y-95028691D01*
X164692182Y-94758192D01*
X164558932Y-94508899D01*
X164379608Y-94290392D01*
X164161101Y-94111068D01*
X164028142Y-94040000D01*
X164161101Y-93968932D01*
X164379608Y-93789608D01*
X164558932Y-93571101D01*
X164618316Y-93460000D01*
X175061928Y-93460000D01*
X175065000Y-94074250D01*
X175223750Y-94233000D01*
X176473000Y-94233000D01*
X176473000Y-92983750D01*
X176727000Y-92983750D01*
X176727000Y-94233000D01*
X176747000Y-94233000D01*
X176747000Y-94487000D01*
X176727000Y-94487000D01*
X176727000Y-95736250D01*
X176885750Y-95895000D01*
X177500000Y-95898072D01*
X177624482Y-95885812D01*
X177744180Y-95849502D01*
X177854494Y-95790537D01*
X177951185Y-95711185D01*
X178030537Y-95614494D01*
X178089502Y-95504180D01*
X178095056Y-95485873D01*
X178161495Y-95552312D01*
X178412905Y-95720299D01*
X178692257Y-95836011D01*
X178988816Y-95895000D01*
X179291184Y-95895000D01*
X179587743Y-95836011D01*
X179867095Y-95720299D01*
X180118505Y-95552312D01*
X180332312Y-95338505D01*
X180500299Y-95087095D01*
X180616011Y-94807743D01*
X180675000Y-94511184D01*
X180675000Y-94208816D01*
X180616011Y-93912257D01*
X180500299Y-93632905D01*
X180332312Y-93381495D01*
X180118505Y-93167688D01*
X179867095Y-92999701D01*
X179587743Y-92883989D01*
X179291184Y-92825000D01*
X178988816Y-92825000D01*
X178692257Y-92883989D01*
X178412905Y-92999701D01*
X178161495Y-93167688D01*
X178095056Y-93234127D01*
X178089502Y-93215820D01*
X178030537Y-93105506D01*
X177951185Y-93008815D01*
X177854494Y-92929463D01*
X177744180Y-92870498D01*
X177624482Y-92834188D01*
X177500000Y-92821928D01*
X176885750Y-92825000D01*
X176727000Y-92983750D01*
X176473000Y-92983750D01*
X176314250Y-92825000D01*
X175700000Y-92821928D01*
X175575518Y-92834188D01*
X175455820Y-92870498D01*
X175345506Y-92929463D01*
X175248815Y-93008815D01*
X175169463Y-93105506D01*
X175110498Y-93215820D01*
X175074188Y-93335518D01*
X175061928Y-93460000D01*
X164618316Y-93460000D01*
X164692182Y-93321808D01*
X164774236Y-93051309D01*
X164801943Y-92770000D01*
X164774236Y-92488691D01*
X164692182Y-92218192D01*
X164558932Y-91968899D01*
X164379608Y-91750392D01*
X164161101Y-91571068D01*
X163911808Y-91437818D01*
X163720000Y-91379634D01*
X163720000Y-90817322D01*
X163723676Y-90779999D01*
X163720000Y-90742677D01*
X163720000Y-90742667D01*
X163709003Y-90631014D01*
X163665546Y-90487753D01*
X163594974Y-90355724D01*
X163500001Y-90239999D01*
X163470997Y-90216196D01*
X163153804Y-89899003D01*
X163130001Y-89869999D01*
X163014276Y-89775026D01*
X162882247Y-89704454D01*
X162738986Y-89660997D01*
X162627333Y-89650000D01*
X162627322Y-89650000D01*
X162590000Y-89646324D01*
X162552678Y-89650000D01*
X152827322Y-89650000D01*
X152789999Y-89646324D01*
X152752676Y-89650000D01*
X152752667Y-89650000D01*
X152641014Y-89660997D01*
X152497753Y-89704454D01*
X152365724Y-89775026D01*
X152249999Y-89869999D01*
X152226200Y-89898998D01*
X152029002Y-90096197D01*
X151999999Y-90119999D01*
X151944871Y-90187174D01*
X151905026Y-90235724D01*
X151891508Y-90261015D01*
X151834454Y-90367754D01*
X151790997Y-90511015D01*
X151780000Y-90622668D01*
X151780000Y-90622678D01*
X151776324Y-90660000D01*
X151780000Y-90697323D01*
X151780001Y-93707309D01*
X151752678Y-93710000D01*
X151567322Y-93710000D01*
X151530000Y-93706324D01*
X151492678Y-93710000D01*
X149875000Y-93710000D01*
X149875000Y-93708816D01*
X149816011Y-93412257D01*
X149700299Y-93132905D01*
X149532312Y-92881495D01*
X149318505Y-92667688D01*
X149067095Y-92499701D01*
X148787743Y-92383989D01*
X148491184Y-92325000D01*
X148188816Y-92325000D01*
X147892257Y-92383989D01*
X147612905Y-92499701D01*
X147361495Y-92667688D01*
X147147688Y-92881495D01*
X146979701Y-93132905D01*
X146863989Y-93412257D01*
X146805000Y-93708816D01*
X139660000Y-93708816D01*
X139660000Y-89461133D01*
X139706654Y-89695679D01*
X139886440Y-90129721D01*
X140147450Y-90520349D01*
X140479651Y-90852550D01*
X140870279Y-91113560D01*
X141304321Y-91293346D01*
X141765098Y-91385000D01*
X142234902Y-91385000D01*
X142695679Y-91293346D01*
X143129721Y-91113560D01*
X143520349Y-90852550D01*
X143852550Y-90520349D01*
X144113560Y-90129721D01*
X144293346Y-89695679D01*
X144385000Y-89234902D01*
X144385000Y-88765098D01*
X144293346Y-88304321D01*
X144113560Y-87870279D01*
X143852550Y-87479651D01*
X143520349Y-87147450D01*
X143129721Y-86886440D01*
X142695679Y-86706654D01*
X142461133Y-86660000D01*
X186538867Y-86660000D01*
X186304321Y-86706654D01*
%TA.AperFunction,Conductor*%
D26*
G36*
X186304321Y-86706654D02*
G01*
X185870279Y-86886440D01*
X185479651Y-87147450D01*
X185147450Y-87479651D01*
X184886440Y-87870279D01*
X184706654Y-88304321D01*
X184615000Y-88765098D01*
X184615000Y-89234902D01*
X184706654Y-89695679D01*
X184886440Y-90129721D01*
X185147450Y-90520349D01*
X185479651Y-90852550D01*
X185870279Y-91113560D01*
X186304321Y-91293346D01*
X186765098Y-91385000D01*
X187234902Y-91385000D01*
X187695679Y-91293346D01*
X188129721Y-91113560D01*
X188520349Y-90852550D01*
X188852550Y-90520349D01*
X189113560Y-90129721D01*
X189293346Y-89695679D01*
X189340000Y-89461133D01*
X189340001Y-118538872D01*
X189293346Y-118304321D01*
X189113560Y-117870279D01*
X188852550Y-117479651D01*
X188520349Y-117147450D01*
X188129721Y-116886440D01*
X187695679Y-116706654D01*
X187234902Y-116615000D01*
X186765098Y-116615000D01*
X186304321Y-116706654D01*
X185870279Y-116886440D01*
X185479651Y-117147450D01*
X185147450Y-117479651D01*
X184886440Y-117870279D01*
X184706654Y-118304321D01*
X184615000Y-118765098D01*
X184615000Y-119234902D01*
X184706654Y-119695679D01*
X184886440Y-120129721D01*
X185147450Y-120520349D01*
X185479651Y-120852550D01*
X185870279Y-121113560D01*
X186304321Y-121293346D01*
X186538867Y-121340000D01*
X142461133Y-121340000D01*
X142695679Y-121293346D01*
X143129721Y-121113560D01*
X143520349Y-120852550D01*
X143852550Y-120520349D01*
X144113560Y-120129721D01*
X144293346Y-119695679D01*
X144385000Y-119234902D01*
X144385000Y-118765098D01*
X144293346Y-118304321D01*
X144113560Y-117870279D01*
X143852550Y-117479651D01*
X143520349Y-117147450D01*
X143129721Y-116886440D01*
X142695679Y-116706654D01*
X142234902Y-116615000D01*
X141765098Y-116615000D01*
X141304321Y-116706654D01*
X140870279Y-116886440D01*
X140479651Y-117147450D01*
X140147450Y-117479651D01*
X139886440Y-117870279D01*
X139706654Y-118304321D01*
X139660000Y-118538867D01*
X139660000Y-114625001D01*
X159376929Y-114625001D01*
X159376929Y-116425001D01*
X159389189Y-116549483D01*
X159425499Y-116669181D01*
X159484464Y-116779495D01*
X159563816Y-116876186D01*
X159660507Y-116955538D01*
X159770821Y-117014503D01*
X159890519Y-117050813D01*
X160015001Y-117063073D01*
X161815001Y-117063073D01*
X161939483Y-117050813D01*
X162059181Y-117014503D01*
X162169495Y-116955538D01*
X162266186Y-116876186D01*
X162345538Y-116779495D01*
X162404503Y-116669181D01*
X162410057Y-116650874D01*
X162476496Y-116717313D01*
X162727906Y-116885300D01*
X163007258Y-117001012D01*
X163303817Y-117060001D01*
X163606185Y-117060001D01*
X163902744Y-117001012D01*
X164182096Y-116885300D01*
X164433506Y-116717313D01*
X164585002Y-116565817D01*
X164585002Y-117337669D01*
X164581325Y-117375001D01*
X164585002Y-117412334D01*
X164593737Y-117501015D01*
X164595999Y-117523986D01*
X164639455Y-117667247D01*
X164710027Y-117799277D01*
X164781202Y-117886003D01*
X164805001Y-117915002D01*
X164833999Y-117938800D01*
X165056196Y-118160997D01*
X165079999Y-118190001D01*
X165195724Y-118284974D01*
X165327753Y-118355546D01*
X165471014Y-118399003D01*
X165582667Y-118410000D01*
X165582676Y-118410000D01*
X165619999Y-118413676D01*
X165657322Y-118410000D01*
X179002678Y-118410000D01*
X179040000Y-118413676D01*
X179077322Y-118410000D01*
X179077333Y-118410000D01*
X179188986Y-118399003D01*
X179332247Y-118355546D01*
X179464276Y-118284974D01*
X179580001Y-118190001D01*
X179603804Y-118160997D01*
X179990998Y-117773803D01*
X180020001Y-117750001D01*
X180087915Y-117667248D01*
X180114974Y-117634277D01*
X180185546Y-117502247D01*
X180212820Y-117412334D01*
X180229003Y-117358986D01*
X180240000Y-117247333D01*
X180240000Y-117247323D01*
X180243676Y-117210000D01*
X180240000Y-117172677D01*
X180240000Y-116398313D01*
X180458505Y-116252312D01*
X180672312Y-116038505D01*
X180840299Y-115787095D01*
X180956011Y-115507743D01*
X181015000Y-115211184D01*
X181015000Y-114908816D01*
X180956011Y-114612257D01*
X180840299Y-114332905D01*
X180672312Y-114081495D01*
X180458505Y-113867688D01*
X180207095Y-113699701D01*
X179927743Y-113583989D01*
X179631184Y-113525000D01*
X179328816Y-113525000D01*
X179032257Y-113583989D01*
X178752905Y-113699701D01*
X178501495Y-113867688D01*
X178435056Y-113934127D01*
X178429502Y-113915820D01*
X178370537Y-113805506D01*
X178291185Y-113708815D01*
X178194494Y-113629463D01*
X178084180Y-113570498D01*
X177964482Y-113534188D01*
X177840000Y-113521928D01*
X177225750Y-113525000D01*
X177067000Y-113683750D01*
X177067000Y-114933000D01*
X177087000Y-114933000D01*
X177087000Y-115187000D01*
X177067000Y-115187000D01*
X177067000Y-116436250D01*
X177225750Y-116595000D01*
X177840000Y-116598072D01*
X177964482Y-116585812D01*
X178084180Y-116549502D01*
X178194494Y-116490537D01*
X178291185Y-116411185D01*
X178370537Y-116314494D01*
X178429502Y-116204180D01*
X178435056Y-116185873D01*
X178501495Y-116252312D01*
X178720000Y-116398313D01*
X178720000Y-116890000D01*
X172452036Y-116890000D01*
X172536632Y-116833475D01*
X172743475Y-116626632D01*
X172905990Y-116383411D01*
X173017932Y-116113158D01*
X173048397Y-115960000D01*
X175401928Y-115960000D01*
X175414188Y-116084482D01*
X175450498Y-116204180D01*
X175509463Y-116314494D01*
X175588815Y-116411185D01*
X175685506Y-116490537D01*
X175795820Y-116549502D01*
X175915518Y-116585812D01*
X176040000Y-116598072D01*
X176654250Y-116595000D01*
X176813000Y-116436250D01*
X176813000Y-115187000D01*
X175563750Y-115187000D01*
X175405000Y-115345750D01*
X175401928Y-115960000D01*
X173048397Y-115960000D01*
X173075000Y-115826260D01*
X173075000Y-115533740D01*
X173017932Y-115246842D01*
X172905990Y-114976589D01*
X172743475Y-114733368D01*
X172536632Y-114526525D01*
X172293411Y-114364010D01*
X172023158Y-114252068D01*
X171736260Y-114195000D01*
X171443740Y-114195000D01*
X171156842Y-114252068D01*
X170886589Y-114364010D01*
X170643368Y-114526525D01*
X170511513Y-114658380D01*
X170489502Y-114585820D01*
X170430537Y-114475506D01*
X170351185Y-114378815D01*
X170254494Y-114299463D01*
X170144180Y-114240498D01*
X170024482Y-114204188D01*
X169900000Y-114191928D01*
X169810000Y-114191928D01*
X169810000Y-114160000D01*
X175401928Y-114160000D01*
X175405000Y-114774250D01*
X175563750Y-114933000D01*
X176813000Y-114933000D01*
X176813000Y-113683750D01*
X176654250Y-113525000D01*
X176040000Y-113521928D01*
X175915518Y-113534188D01*
X175795820Y-113570498D01*
X175685506Y-113629463D01*
X175588815Y-113708815D01*
X175509463Y-113805506D01*
X175450498Y-113915820D01*
X175414188Y-114035518D01*
X175401928Y-114160000D01*
X169810000Y-114160000D01*
X169810000Y-111818072D01*
X170640000Y-111818072D01*
X170764482Y-111805812D01*
X170884180Y-111769502D01*
X170994494Y-111710537D01*
X171091185Y-111631185D01*
X171170537Y-111534494D01*
X171229502Y-111424180D01*
X171235056Y-111405873D01*
X171301495Y-111472312D01*
X171552905Y-111640299D01*
X171832257Y-111756011D01*
X172128816Y-111815000D01*
X172431184Y-111815000D01*
X172727743Y-111756011D01*
X173007095Y-111640299D01*
X173258505Y-111472312D01*
X173472312Y-111258505D01*
X173640299Y-111007095D01*
X173756011Y-110727743D01*
X173815000Y-110431184D01*
X173815000Y-110128816D01*
X173756011Y-109832257D01*
X173640299Y-109552905D01*
X173472312Y-109301495D01*
X173258505Y-109087688D01*
X173007095Y-108919701D01*
X172727743Y-108803989D01*
X172431184Y-108745000D01*
X172128816Y-108745000D01*
X171832257Y-108803989D01*
X171552905Y-108919701D01*
X171301495Y-109087688D01*
X171235056Y-109154127D01*
X171229502Y-109135820D01*
X171170537Y-109025506D01*
X171091185Y-108928815D01*
X170994494Y-108849463D01*
X170884180Y-108790498D01*
X170764482Y-108754188D01*
X170640000Y-108741928D01*
X168840000Y-108741928D01*
X168715518Y-108754188D01*
X168595820Y-108790498D01*
X168485506Y-108849463D01*
X168388815Y-108928815D01*
X168309463Y-109025506D01*
X168250498Y-109135820D01*
X168214188Y-109255518D01*
X168201928Y-109380000D01*
X168201928Y-111180000D01*
X168214188Y-111304482D01*
X168250498Y-111424180D01*
X168290001Y-111498084D01*
X168290000Y-114191928D01*
X168200000Y-114191928D01*
X168075518Y-114204188D01*
X167955820Y-114240498D01*
X167845506Y-114299463D01*
X167748815Y-114378815D01*
X167669463Y-114475506D01*
X167610498Y-114585820D01*
X167574188Y-114705518D01*
X167561928Y-114830000D01*
X167561928Y-116530000D01*
X167574188Y-116654482D01*
X167610498Y-116774180D01*
X167669463Y-116884494D01*
X167673982Y-116890000D01*
X166105001Y-116890000D01*
X166105001Y-112922776D01*
X166196014Y-112861963D01*
X166381963Y-112676014D01*
X166528062Y-112457360D01*
X166628697Y-112214406D01*
X166680001Y-111956487D01*
X166680001Y-111693515D01*
X166628697Y-111435596D01*
X166528062Y-111192642D01*
X166381963Y-110973988D01*
X166196014Y-110788039D01*
X165977360Y-110641940D01*
X165734406Y-110541305D01*
X165476487Y-110490001D01*
X165213515Y-110490001D01*
X164955596Y-110541305D01*
X164712642Y-110641940D01*
X164493988Y-110788039D01*
X164308039Y-110973988D01*
X164161940Y-111192642D01*
X164061305Y-111435596D01*
X164010001Y-111693515D01*
X164010001Y-111956487D01*
X164061305Y-112214406D01*
X164161940Y-112457360D01*
X164308039Y-112676014D01*
X164493988Y-112861963D01*
X164585001Y-112922776D01*
X164585001Y-114484184D01*
X164433506Y-114332689D01*
X164182096Y-114164702D01*
X163902744Y-114048990D01*
X163606185Y-113990001D01*
X163303817Y-113990001D01*
X163007258Y-114048990D01*
X162727906Y-114164702D01*
X162476496Y-114332689D01*
X162410057Y-114399128D01*
X162404503Y-114380821D01*
X162345538Y-114270507D01*
X162266186Y-114173816D01*
X162169495Y-114094464D01*
X162059181Y-114035499D01*
X161939483Y-113999189D01*
X161815001Y-113986929D01*
X160015001Y-113986929D01*
X159890519Y-113999189D01*
X159770821Y-114035499D01*
X159660507Y-114094464D01*
X159563816Y-114173816D01*
X159484464Y-114270507D01*
X159425499Y-114380821D01*
X159389189Y-114500519D01*
X159376929Y-114625001D01*
X139660000Y-114625001D01*
X139660000Y-111693515D01*
X158930001Y-111693515D01*
X158930001Y-111956487D01*
X158981305Y-112214406D01*
X159081940Y-112457360D01*
X159228039Y-112676014D01*
X159413988Y-112861963D01*
X159632642Y-113008062D01*
X159875596Y-113108697D01*
X160133515Y-113160001D01*
X160396487Y-113160001D01*
X160654406Y-113108697D01*
X160897360Y-113008062D01*
X161116014Y-112861963D01*
X161301963Y-112676014D01*
X161448062Y-112457360D01*
X161548697Y-112214406D01*
X161600001Y-111956487D01*
X161600001Y-111693515D01*
X161548697Y-111435596D01*
X161448062Y-111192642D01*
X161301963Y-110973988D01*
X161116014Y-110788039D01*
X160897360Y-110641940D01*
X160654406Y-110541305D01*
X160396487Y-110490001D01*
X160133515Y-110490001D01*
X159875596Y-110541305D01*
X159632642Y-110641940D01*
X159413988Y-110788039D01*
X159228039Y-110973988D01*
X159081940Y-111192642D01*
X158981305Y-111435596D01*
X158930001Y-111693515D01*
X139660000Y-111693515D01*
X139660000Y-99924080D01*
X147455525Y-99924080D01*
X147539208Y-100178261D01*
X147811775Y-100309158D01*
X148104642Y-100384365D01*
X148406553Y-100400991D01*
X148705907Y-100358397D01*
X148991199Y-100258222D01*
X149140792Y-100178261D01*
X149224475Y-99924080D01*
X148340000Y-99039605D01*
X147455525Y-99924080D01*
X139660000Y-99924080D01*
X139660000Y-98926553D01*
X146799009Y-98926553D01*
X146841603Y-99225907D01*
X146941778Y-99511199D01*
X147021739Y-99660792D01*
X147275920Y-99744475D01*
X148160395Y-98860000D01*
X148519605Y-98860000D01*
X149404080Y-99744475D01*
X149658261Y-99660792D01*
X149789158Y-99388225D01*
X149864365Y-99095358D01*
X149880991Y-98793447D01*
X149838397Y-98494093D01*
X149738222Y-98208801D01*
X149658261Y-98059208D01*
X149404080Y-97975525D01*
X148519605Y-98860000D01*
X148160395Y-98860000D01*
X147275920Y-97975525D01*
X147021739Y-98059208D01*
X146890842Y-98331775D01*
X146815635Y-98624642D01*
X146799009Y-98926553D01*
X139660000Y-98926553D01*
X139660000Y-93708816D01*
X146805000Y-93708816D01*
X146805000Y-94011184D01*
X146863989Y-94307743D01*
X146979701Y-94587095D01*
X147147688Y-94838505D01*
X147361495Y-95052312D01*
X147447831Y-95110000D01*
X147361495Y-95167688D01*
X147147688Y-95381495D01*
X146979701Y-95632905D01*
X146863989Y-95912257D01*
X146805000Y-96208816D01*
X146805000Y-96511184D01*
X146863989Y-96807743D01*
X146979701Y-97087095D01*
X147147688Y-97338505D01*
X147361495Y-97552312D01*
X147504310Y-97647738D01*
X147455525Y-97795920D01*
X148340000Y-98680395D01*
X149224475Y-97795920D01*
X149175690Y-97647738D01*
X149318505Y-97552312D01*
X149510817Y-97360000D01*
X150122689Y-97360000D01*
X150122795Y-97360256D01*
X150236063Y-97529774D01*
X150380226Y-97673937D01*
X150549744Y-97787205D01*
X150738102Y-97865226D01*
X150938061Y-97905000D01*
X151120000Y-97905000D01*
X151120001Y-105845197D01*
X151005198Y-105960001D01*
X150823073Y-105960001D01*
X150823073Y-105170000D01*
X150806009Y-104996746D01*
X150755473Y-104830150D01*
X150673406Y-104676614D01*
X150562963Y-104542039D01*
X150428388Y-104431596D01*
X150274852Y-104349529D01*
X150108256Y-104298993D01*
X149935002Y-104281929D01*
X148355000Y-104281929D01*
X148181746Y-104298993D01*
X148015150Y-104349529D01*
X147861614Y-104431596D01*
X147727039Y-104542039D01*
X147616596Y-104676614D01*
X147534529Y-104830150D01*
X147483993Y-104996746D01*
X147466929Y-105170000D01*
X147466929Y-108270002D01*
X147483993Y-108443256D01*
X147534529Y-108609852D01*
X147616596Y-108763388D01*
X147727039Y-108897963D01*
X147861614Y-109008406D01*
X148015150Y-109090473D01*
X148181746Y-109141009D01*
X148355000Y-109158073D01*
X149935002Y-109158073D01*
X150108256Y-109141009D01*
X150274852Y-109090473D01*
X150428388Y-109008406D01*
X150562963Y-108897963D01*
X150673406Y-108763388D01*
X150755473Y-108609852D01*
X150806009Y-108443256D01*
X150823073Y-108270002D01*
X150823073Y-107480001D01*
X151282677Y-107480001D01*
X151319999Y-107483677D01*
X151357321Y-107480001D01*
X151357332Y-107480001D01*
X151468985Y-107469004D01*
X151612246Y-107425547D01*
X151744275Y-107354975D01*
X151860000Y-107260002D01*
X151883802Y-107230999D01*
X152267800Y-106847001D01*
X152550001Y-106847001D01*
X152550001Y-107607001D01*
X152606962Y-107931337D01*
X152726103Y-108238328D01*
X152902846Y-108516177D01*
X153130399Y-108754207D01*
X153400017Y-108943270D01*
X153701338Y-109076100D01*
X153838291Y-109109749D01*
X154098001Y-108990923D01*
X154098001Y-106847001D01*
X154352001Y-106847001D01*
X154352001Y-108990923D01*
X154611711Y-109109749D01*
X154748664Y-109076100D01*
X155049985Y-108943270D01*
X155319603Y-108754207D01*
X155521021Y-108543515D01*
X158930001Y-108543515D01*
X158930001Y-108806487D01*
X158981305Y-109064406D01*
X159081940Y-109307360D01*
X159228039Y-109526014D01*
X159413988Y-109711963D01*
X159632642Y-109858062D01*
X159875596Y-109958697D01*
X160133515Y-110010001D01*
X160396487Y-110010001D01*
X160654406Y-109958697D01*
X160897360Y-109858062D01*
X161116014Y-109711963D01*
X161301963Y-109526014D01*
X161448062Y-109307360D01*
X161548697Y-109064406D01*
X161600001Y-108806487D01*
X161600001Y-108543515D01*
X161548697Y-108285596D01*
X161448062Y-108042642D01*
X161301963Y-107823988D01*
X161116014Y-107638039D01*
X160897360Y-107491940D01*
X160654406Y-107391305D01*
X160396487Y-107340001D01*
X160133515Y-107340001D01*
X159875596Y-107391305D01*
X159632642Y-107491940D01*
X159413988Y-107638039D01*
X159228039Y-107823988D01*
X159081940Y-108042642D01*
X158981305Y-108285596D01*
X158930001Y-108543515D01*
X155521021Y-108543515D01*
X155547156Y-108516177D01*
X155723899Y-108238328D01*
X155843040Y-107931337D01*
X155900001Y-107607001D01*
X155900001Y-106847001D01*
X154352001Y-106847001D01*
X154098001Y-106847001D01*
X152550001Y-106847001D01*
X152267800Y-106847001D01*
X152391002Y-106723800D01*
X152420001Y-106700001D01*
X152507814Y-106593001D01*
X152514974Y-106584277D01*
X152550001Y-106518747D01*
X152550001Y-106593001D01*
X154098001Y-106593001D01*
X154098001Y-106573001D01*
X154352001Y-106573001D01*
X154352001Y-106593001D01*
X155900001Y-106593001D01*
X155900001Y-105833001D01*
X155843040Y-105508665D01*
X155723899Y-105201674D01*
X155547156Y-104923825D01*
X155319603Y-104685795D01*
X155049985Y-104496732D01*
X154943975Y-104450000D01*
X159470918Y-104450000D01*
X159413988Y-104488039D01*
X159228039Y-104673988D01*
X159081940Y-104892642D01*
X158981305Y-105135596D01*
X158930001Y-105393515D01*
X158930001Y-105656487D01*
X158981305Y-105914406D01*
X159081940Y-106157360D01*
X159228039Y-106376014D01*
X159413988Y-106561963D01*
X159632642Y-106708062D01*
X159875596Y-106808697D01*
X160133515Y-106860001D01*
X160396487Y-106860001D01*
X160654406Y-106808697D01*
X160897360Y-106708062D01*
X161116014Y-106561963D01*
X161301963Y-106376014D01*
X161448062Y-106157360D01*
X161548697Y-105914406D01*
X161600001Y-105656487D01*
X161600001Y-105393515D01*
X164010001Y-105393515D01*
X164010001Y-105656487D01*
X164061305Y-105914406D01*
X164161940Y-106157360D01*
X164308039Y-106376014D01*
X164493988Y-106561963D01*
X164712642Y-106708062D01*
X164955596Y-106808697D01*
X165213515Y-106860001D01*
X165476487Y-106860001D01*
X165734406Y-106808697D01*
X165977360Y-106708062D01*
X166170000Y-106579345D01*
X166170000Y-107620657D01*
X165977360Y-107491940D01*
X165734406Y-107391305D01*
X165476487Y-107340001D01*
X165213515Y-107340001D01*
X164955596Y-107391305D01*
X164712642Y-107491940D01*
X164493988Y-107638039D01*
X164308039Y-107823988D01*
X164161940Y-108042642D01*
X164061305Y-108285596D01*
X164010001Y-108543515D01*
X164010001Y-108806487D01*
X164061305Y-109064406D01*
X164161940Y-109307360D01*
X164308039Y-109526014D01*
X164493988Y-109711963D01*
X164712642Y-109858062D01*
X164955596Y-109958697D01*
X165213515Y-110010001D01*
X165476487Y-110010001D01*
X165734406Y-109958697D01*
X165977360Y-109858062D01*
X166196014Y-109711963D01*
X166381963Y-109526014D01*
X166445625Y-109430737D01*
X166513985Y-109424004D01*
X166657246Y-109380547D01*
X166789275Y-109309975D01*
X166905000Y-109215002D01*
X166928802Y-109185999D01*
X167441004Y-108673798D01*
X167470001Y-108650001D01*
X167502950Y-108609852D01*
X167564974Y-108534277D01*
X167593985Y-108480000D01*
X175261928Y-108480000D01*
X175274188Y-108604482D01*
X175310498Y-108724180D01*
X175369463Y-108834494D01*
X175448815Y-108931185D01*
X175545506Y-109010537D01*
X175655820Y-109069502D01*
X175775518Y-109105812D01*
X175900000Y-109118072D01*
X176514250Y-109115000D01*
X176673000Y-108956250D01*
X176673000Y-107707000D01*
X175423750Y-107707000D01*
X175265000Y-107865750D01*
X175261928Y-108480000D01*
X167593985Y-108480000D01*
X167635546Y-108402247D01*
X167641459Y-108382754D01*
X167679003Y-108258986D01*
X167690000Y-108147333D01*
X167690000Y-108147324D01*
X167693676Y-108110001D01*
X167690000Y-108072678D01*
X167690000Y-106719394D01*
X167905596Y-106808697D01*
X168163515Y-106860001D01*
X168426487Y-106860001D01*
X168684406Y-106808697D01*
X168927360Y-106708062D01*
X169146014Y-106561963D01*
X169331963Y-106376014D01*
X169478062Y-106157360D01*
X169578697Y-105914406D01*
X169630001Y-105656487D01*
X169630001Y-105393515D01*
X169578697Y-105135596D01*
X169478062Y-104892642D01*
X169331963Y-104673988D01*
X169146014Y-104488039D01*
X169089084Y-104450000D01*
X172580918Y-104450000D01*
X172523988Y-104488039D01*
X172338039Y-104673988D01*
X172191940Y-104892642D01*
X172091305Y-105135596D01*
X172040001Y-105393515D01*
X172040001Y-105656487D01*
X172091305Y-105914406D01*
X172191940Y-106157360D01*
X172338039Y-106376014D01*
X172523988Y-106561963D01*
X172742642Y-106708062D01*
X172985596Y-106808697D01*
X173243515Y-106860001D01*
X173506487Y-106860001D01*
X173764406Y-106808697D01*
X174007360Y-106708062D01*
X174049358Y-106680000D01*
X175261928Y-106680000D01*
X175265000Y-107294250D01*
X175423750Y-107453000D01*
X176673000Y-107453000D01*
X176673000Y-106203750D01*
X176927000Y-106203750D01*
X176927000Y-107453000D01*
X176947000Y-107453000D01*
X176947000Y-107707000D01*
X176927000Y-107707000D01*
X176927000Y-108956250D01*
X177085750Y-109115000D01*
X177700000Y-109118072D01*
X177824482Y-109105812D01*
X177944180Y-109069502D01*
X178054494Y-109010537D01*
X178151185Y-108931185D01*
X178230537Y-108834494D01*
X178289502Y-108724180D01*
X178295056Y-108705873D01*
X178361495Y-108772312D01*
X178612905Y-108940299D01*
X178892257Y-109056011D01*
X179188816Y-109115000D01*
X179491184Y-109115000D01*
X179787743Y-109056011D01*
X180067095Y-108940299D01*
X180318505Y-108772312D01*
X180532312Y-108558505D01*
X180700299Y-108307095D01*
X180816011Y-108027743D01*
X180875000Y-107731184D01*
X180875000Y-107428816D01*
X180816011Y-107132257D01*
X180700299Y-106852905D01*
X180532312Y-106601495D01*
X180318505Y-106387688D01*
X180067095Y-106219701D01*
X179787743Y-106103989D01*
X179491184Y-106045000D01*
X179188816Y-106045000D01*
X178892257Y-106103989D01*
X178612905Y-106219701D01*
X178361495Y-106387688D01*
X178295056Y-106454127D01*
X178289502Y-106435820D01*
X178230537Y-106325506D01*
X178151185Y-106228815D01*
X178054494Y-106149463D01*
X177944180Y-106090498D01*
X177824482Y-106054188D01*
X177700000Y-106041928D01*
X177085750Y-106045000D01*
X176927000Y-106203750D01*
X176673000Y-106203750D01*
X176514250Y-106045000D01*
X175900000Y-106041928D01*
X175775518Y-106054188D01*
X175655820Y-106090498D01*
X175545506Y-106149463D01*
X175448815Y-106228815D01*
X175369463Y-106325506D01*
X175310498Y-106435820D01*
X175274188Y-106555518D01*
X175261928Y-106680000D01*
X174049358Y-106680000D01*
X174226014Y-106561963D01*
X174411963Y-106376014D01*
X174558062Y-106157360D01*
X174658697Y-105914406D01*
X174710001Y-105656487D01*
X174710001Y-105393515D01*
X174658697Y-105135596D01*
X174558062Y-104892642D01*
X174411963Y-104673988D01*
X174226014Y-104488039D01*
X174169084Y-104450000D01*
X178542678Y-104450000D01*
X178580000Y-104453676D01*
X178617322Y-104450000D01*
X178617333Y-104450000D01*
X178728986Y-104439003D01*
X178872247Y-104395546D01*
X179004276Y-104324974D01*
X179120001Y-104230001D01*
X179143803Y-104200998D01*
X179791009Y-103553794D01*
X179820001Y-103530001D01*
X179843795Y-103501008D01*
X179843799Y-103501004D01*
X179914973Y-103414277D01*
X179914974Y-103414276D01*
X179985546Y-103282247D01*
X180029003Y-103138986D01*
X180040000Y-103027333D01*
X180040000Y-103027324D01*
X180043676Y-102990001D01*
X180040000Y-102952678D01*
X180040000Y-102300000D01*
X182381928Y-102300000D01*
X182381928Y-104000000D01*
X182394188Y-104124482D01*
X182430498Y-104244180D01*
X182489463Y-104354494D01*
X182568815Y-104451185D01*
X182665506Y-104530537D01*
X182775820Y-104589502D01*
X182895518Y-104625812D01*
X183020000Y-104638072D01*
X184720000Y-104638072D01*
X184844482Y-104625812D01*
X184964180Y-104589502D01*
X185074494Y-104530537D01*
X185171185Y-104451185D01*
X185250537Y-104354494D01*
X185309502Y-104244180D01*
X185345812Y-104124482D01*
X185358072Y-104000000D01*
X185358072Y-102300000D01*
X185345812Y-102175518D01*
X185309502Y-102055820D01*
X185250537Y-101945506D01*
X185171185Y-101848815D01*
X185074494Y-101769463D01*
X184964180Y-101710498D01*
X184883534Y-101686034D01*
X184967588Y-101610269D01*
X185141641Y-101376920D01*
X185266825Y-101114099D01*
X185311476Y-100966890D01*
X185190155Y-100737000D01*
X183997000Y-100737000D01*
X183997000Y-100757000D01*
X183743000Y-100757000D01*
X183743000Y-100737000D01*
X182549845Y-100737000D01*
X182428524Y-100966890D01*
X182473175Y-101114099D01*
X182598359Y-101376920D01*
X182772412Y-101610269D01*
X182856466Y-101686034D01*
X182775820Y-101710498D01*
X182665506Y-101769463D01*
X182568815Y-101848815D01*
X182489463Y-101945506D01*
X182430498Y-102055820D01*
X182394188Y-102175518D01*
X182381928Y-102300000D01*
X180040000Y-102300000D01*
X180040000Y-102278313D01*
X180258505Y-102132312D01*
X180472312Y-101918505D01*
X180640299Y-101667095D01*
X180756011Y-101387743D01*
X180815000Y-101091184D01*
X180815000Y-100788816D01*
X180756011Y-100492257D01*
X180656953Y-100253110D01*
X182428524Y-100253110D01*
X182549845Y-100483000D01*
X183743000Y-100483000D01*
X183743000Y-99289186D01*
X183997000Y-99289186D01*
X183997000Y-100483000D01*
X185190155Y-100483000D01*
X185311476Y-100253110D01*
X185266825Y-100105901D01*
X185141641Y-99843080D01*
X184967588Y-99609731D01*
X184751355Y-99414822D01*
X184501252Y-99265843D01*
X184226891Y-99168519D01*
X183997000Y-99289186D01*
X183743000Y-99289186D01*
X183513109Y-99168519D01*
X183238748Y-99265843D01*
X182988645Y-99414822D01*
X182772412Y-99609731D01*
X182598359Y-99843080D01*
X182473175Y-100105901D01*
X182428524Y-100253110D01*
X180656953Y-100253110D01*
X180640299Y-100212905D01*
X180472312Y-99961495D01*
X180258505Y-99747688D01*
X180007095Y-99579701D01*
X179727743Y-99463989D01*
X179431184Y-99405000D01*
X179128816Y-99405000D01*
X178832257Y-99463989D01*
X178552905Y-99579701D01*
X178301495Y-99747688D01*
X178235056Y-99814127D01*
X178229502Y-99795820D01*
X178170537Y-99685506D01*
X178091185Y-99588815D01*
X177994494Y-99509463D01*
X177884180Y-99450498D01*
X177764482Y-99414188D01*
X177640000Y-99401928D01*
X175840000Y-99401928D01*
X175715518Y-99414188D01*
X175595820Y-99450498D01*
X175485506Y-99509463D01*
X175388815Y-99588815D01*
X175309463Y-99685506D01*
X175250498Y-99795820D01*
X175214188Y-99915518D01*
X175201928Y-100040000D01*
X175201928Y-101840000D01*
X175214188Y-101964482D01*
X175250498Y-102084180D01*
X175309463Y-102194494D01*
X175388815Y-102291185D01*
X175485506Y-102370537D01*
X175595820Y-102429502D01*
X175715518Y-102465812D01*
X175840000Y-102478072D01*
X177640000Y-102478072D01*
X177764482Y-102465812D01*
X177884180Y-102429502D01*
X177994494Y-102370537D01*
X178091185Y-102291185D01*
X178170537Y-102194494D01*
X178229502Y-102084180D01*
X178235056Y-102065873D01*
X178301495Y-102132312D01*
X178520000Y-102278313D01*
X178520000Y-102675197D01*
X178265198Y-102930000D01*
X173721636Y-102930000D01*
X173801013Y-102876962D01*
X173986962Y-102691013D01*
X174133061Y-102472359D01*
X174233696Y-102229405D01*
X174285000Y-101971486D01*
X174285000Y-101708514D01*
X174233696Y-101450595D01*
X174133061Y-101207641D01*
X173986962Y-100988987D01*
X173801013Y-100803038D01*
X173582359Y-100656939D01*
X173339405Y-100556304D01*
X173081486Y-100505000D01*
X172818514Y-100505000D01*
X172560595Y-100556304D01*
X172317641Y-100656939D01*
X172098987Y-100803038D01*
X171913038Y-100988987D01*
X171766939Y-101207641D01*
X171666304Y-101450595D01*
X171615000Y-101708514D01*
X171615000Y-101971486D01*
X171666304Y-102229405D01*
X171766939Y-102472359D01*
X171913038Y-102691013D01*
X172098987Y-102876962D01*
X172178364Y-102930000D01*
X168641636Y-102930000D01*
X168721013Y-102876962D01*
X168906962Y-102691013D01*
X169053061Y-102472359D01*
X169153696Y-102229405D01*
X169205000Y-101971486D01*
X169205000Y-101708514D01*
X169153696Y-101450595D01*
X169053061Y-101207641D01*
X168906962Y-100988987D01*
X168721013Y-100803038D01*
X168502359Y-100656939D01*
X168259405Y-100556304D01*
X168001486Y-100505000D01*
X167738514Y-100505000D01*
X167480595Y-100556304D01*
X167237641Y-100656939D01*
X167018987Y-100803038D01*
X166833038Y-100988987D01*
X166686939Y-101207641D01*
X166586304Y-101450595D01*
X166535000Y-101708514D01*
X166535000Y-101971486D01*
X166586304Y-102229405D01*
X166686939Y-102472359D01*
X166833038Y-102691013D01*
X167018987Y-102876962D01*
X167201146Y-102998676D01*
X167095723Y-103055026D01*
X167012083Y-103123668D01*
X166979999Y-103149999D01*
X166956201Y-103178997D01*
X166418998Y-103716201D01*
X166390000Y-103739999D01*
X166366202Y-103768997D01*
X166366201Y-103768998D01*
X166295026Y-103855724D01*
X166224454Y-103987754D01*
X166215380Y-104017669D01*
X166182980Y-104124482D01*
X166180998Y-104131015D01*
X166166324Y-104280000D01*
X166170001Y-104317332D01*
X166170001Y-104470658D01*
X165977360Y-104341940D01*
X165734406Y-104241305D01*
X165476487Y-104190001D01*
X165213515Y-104190001D01*
X164955596Y-104241305D01*
X164712642Y-104341940D01*
X164493988Y-104488039D01*
X164308039Y-104673988D01*
X164161940Y-104892642D01*
X164061305Y-105135596D01*
X164010001Y-105393515D01*
X161600001Y-105393515D01*
X161548697Y-105135596D01*
X161448062Y-104892642D01*
X161301963Y-104673988D01*
X161116014Y-104488039D01*
X161025001Y-104427226D01*
X161025001Y-104092323D01*
X161028677Y-104055000D01*
X161025001Y-104017677D01*
X161025001Y-104017668D01*
X161014004Y-103906015D01*
X160970547Y-103762754D01*
X160899975Y-103630725D01*
X160805002Y-103515000D01*
X160775999Y-103491198D01*
X160463804Y-103179003D01*
X160440001Y-103149999D01*
X160324276Y-103055026D01*
X160192247Y-102984454D01*
X160048986Y-102940997D01*
X159937333Y-102930000D01*
X159937322Y-102930000D01*
X159900000Y-102926324D01*
X159862678Y-102930000D01*
X153314802Y-102930000D01*
X153220000Y-102835199D01*
X153220000Y-100834802D01*
X153286200Y-100901002D01*
X153309999Y-100930001D01*
X153425724Y-101024974D01*
X153557753Y-101095546D01*
X153701014Y-101139003D01*
X153713899Y-101140272D01*
X153741068Y-101191101D01*
X153920392Y-101409608D01*
X154138899Y-101588932D01*
X154388192Y-101722182D01*
X154658691Y-101804236D01*
X154869508Y-101825000D01*
X155810492Y-101825000D01*
X156021309Y-101804236D01*
X156291808Y-101722182D01*
X156541101Y-101588932D01*
X156759608Y-101409608D01*
X156938932Y-101191101D01*
X157072182Y-100941808D01*
X157133690Y-100739039D01*
X161168096Y-100739039D01*
X161185633Y-100821818D01*
X161296285Y-101081646D01*
X161455500Y-101314895D01*
X161657161Y-101512601D01*
X161893517Y-101667166D01*
X162155486Y-101772650D01*
X162433000Y-101825000D01*
X162833000Y-101825000D01*
X162833000Y-100517000D01*
X163087000Y-100517000D01*
X163087000Y-101825000D01*
X163487000Y-101825000D01*
X163764514Y-101772650D01*
X164026483Y-101667166D01*
X164262839Y-101512601D01*
X164464500Y-101314895D01*
X164623715Y-101081646D01*
X164734367Y-100821818D01*
X164751904Y-100739039D01*
X164629915Y-100517000D01*
X163087000Y-100517000D01*
X162833000Y-100517000D01*
X161290085Y-100517000D01*
X161168096Y-100739039D01*
X157133690Y-100739039D01*
X157154236Y-100671309D01*
X157181943Y-100390000D01*
X157154236Y-100108691D01*
X157072182Y-99838192D01*
X156938932Y-99588899D01*
X156759608Y-99370392D01*
X156541101Y-99191068D01*
X156408142Y-99120000D01*
X156541101Y-99048932D01*
X156759608Y-98869608D01*
X156938932Y-98651101D01*
X157072182Y-98401808D01*
X157154236Y-98131309D01*
X157181943Y-97850000D01*
X157154236Y-97568691D01*
X157072182Y-97298192D01*
X156938932Y-97048899D01*
X156759608Y-96830392D01*
X156541101Y-96651068D01*
X156408142Y-96580000D01*
X156541101Y-96508932D01*
X156759608Y-96329608D01*
X156938932Y-96111101D01*
X157072182Y-95861808D01*
X157154236Y-95591309D01*
X157181943Y-95310000D01*
X157154236Y-95028691D01*
X157072182Y-94758192D01*
X156938932Y-94508899D01*
X156759608Y-94290392D01*
X156646518Y-94197581D01*
X156664482Y-94195812D01*
X156784180Y-94159502D01*
X156894494Y-94100537D01*
X156991185Y-94021185D01*
X157070537Y-93924494D01*
X157129502Y-93814180D01*
X157165812Y-93694482D01*
X157178072Y-93570000D01*
X157175000Y-93055750D01*
X157016250Y-92897000D01*
X155467000Y-92897000D01*
X155467000Y-92917000D01*
X155213000Y-92917000D01*
X155213000Y-92897000D01*
X153663750Y-92897000D01*
X153505000Y-93055750D01*
X153501928Y-93570000D01*
X153514188Y-93694482D01*
X153550498Y-93814180D01*
X153609463Y-93924494D01*
X153688815Y-94021185D01*
X153785506Y-94100537D01*
X153895820Y-94159502D01*
X154015518Y-94195812D01*
X154033482Y-94197581D01*
X153920392Y-94290392D01*
X153741068Y-94508899D01*
X153719099Y-94550000D01*
X153225366Y-94550000D01*
X153245546Y-94512247D01*
X153289003Y-94368986D01*
X153300000Y-94257333D01*
X153300000Y-94257324D01*
X153303676Y-94220001D01*
X153300000Y-94182678D01*
X153300000Y-91970000D01*
X153501928Y-91970000D01*
X153505000Y-92484250D01*
X153663750Y-92643000D01*
X155213000Y-92643000D01*
X155213000Y-91493750D01*
X155467000Y-91493750D01*
X155467000Y-92643000D01*
X157016250Y-92643000D01*
X157175000Y-92484250D01*
X157178072Y-91970000D01*
X157165812Y-91845518D01*
X157129502Y-91725820D01*
X157070537Y-91615506D01*
X156991185Y-91518815D01*
X156894494Y-91439463D01*
X156784180Y-91380498D01*
X156664482Y-91344188D01*
X156540000Y-91331928D01*
X155625750Y-91335000D01*
X155467000Y-91493750D01*
X155213000Y-91493750D01*
X155054250Y-91335000D01*
X154140000Y-91331928D01*
X154015518Y-91344188D01*
X153895820Y-91380498D01*
X153785506Y-91439463D01*
X153688815Y-91518815D01*
X153609463Y-91615506D01*
X153550498Y-91725820D01*
X153514188Y-91845518D01*
X153501928Y-91970000D01*
X153300000Y-91970000D01*
X153300000Y-91170000D01*
X162200001Y-91170000D01*
X162200001Y-91379634D01*
X162008192Y-91437818D01*
X161758899Y-91571068D01*
X161540392Y-91750392D01*
X161361068Y-91968899D01*
X161227818Y-92218192D01*
X161145764Y-92488691D01*
X161118057Y-92770000D01*
X161145764Y-93051309D01*
X161227818Y-93321808D01*
X161361068Y-93571101D01*
X161540392Y-93789608D01*
X161758899Y-93968932D01*
X161891858Y-94040000D01*
X161758899Y-94111068D01*
X161540392Y-94290392D01*
X161361068Y-94508899D01*
X161227818Y-94758192D01*
X161145764Y-95028691D01*
X161118057Y-95310000D01*
X161145764Y-95591309D01*
X161227818Y-95861808D01*
X161361068Y-96111101D01*
X161540392Y-96329608D01*
X161758899Y-96508932D01*
X161891858Y-96580000D01*
X161758899Y-96651068D01*
X161540392Y-96830392D01*
X161361068Y-97048899D01*
X161227818Y-97298192D01*
X161145764Y-97568691D01*
X161118057Y-97850000D01*
X161145764Y-98131309D01*
X161227818Y-98401808D01*
X161361068Y-98651101D01*
X161540392Y-98869608D01*
X161758899Y-99048932D01*
X161886741Y-99117265D01*
X161657161Y-99267399D01*
X161455500Y-99465105D01*
X161296285Y-99698354D01*
X161185633Y-99958182D01*
X161168096Y-100040961D01*
X161290085Y-100263000D01*
X162833000Y-100263000D01*
X162833000Y-100243000D01*
X163087000Y-100243000D01*
X163087000Y-100263000D01*
X164629915Y-100263000D01*
X164751904Y-100040961D01*
X164734367Y-99958182D01*
X164623715Y-99698354D01*
X164464500Y-99465105D01*
X164262839Y-99267399D01*
X164033259Y-99117265D01*
X164161101Y-99048932D01*
X164379608Y-98869608D01*
X164558932Y-98651101D01*
X164692182Y-98401808D01*
X164774236Y-98131309D01*
X164801943Y-97850000D01*
X164774236Y-97568691D01*
X164692182Y-97298192D01*
X164558932Y-97048899D01*
X164379608Y-96830392D01*
X164161101Y-96651068D01*
X164028142Y-96580000D01*
X164161101Y-96508932D01*
X164379608Y-96329608D01*
X164558932Y-96111101D01*
X164662355Y-95917609D01*
X167866538Y-95917609D01*
X167872523Y-95960162D01*
X167965604Y-96184907D01*
X168100742Y-96387174D01*
X168272744Y-96559191D01*
X168475000Y-96694346D01*
X168699737Y-96787446D01*
X168938319Y-96834913D01*
X169047083Y-96748363D01*
X169295000Y-96748363D01*
X169295000Y-96991637D01*
X169342460Y-97230236D01*
X169435557Y-97454992D01*
X169570713Y-97657267D01*
X169742733Y-97829287D01*
X169945008Y-97964443D01*
X170169764Y-98057540D01*
X170408363Y-98105000D01*
X170651637Y-98105000D01*
X170890236Y-98057540D01*
X171114992Y-97964443D01*
X171317267Y-97829287D01*
X171489287Y-97657267D01*
X171624443Y-97454992D01*
X171717540Y-97230236D01*
X171765000Y-96991637D01*
X171765000Y-96835000D01*
X171921637Y-96835000D01*
X172160236Y-96787540D01*
X172384992Y-96694443D01*
X172587267Y-96559287D01*
X172759287Y-96387267D01*
X172894443Y-96184992D01*
X172987540Y-95960236D01*
X173035000Y-95721637D01*
X173035000Y-95478363D01*
X172991566Y-95260000D01*
X175061928Y-95260000D01*
X175074188Y-95384482D01*
X175110498Y-95504180D01*
X175169463Y-95614494D01*
X175248815Y-95711185D01*
X175345506Y-95790537D01*
X175455820Y-95849502D01*
X175575518Y-95885812D01*
X175700000Y-95898072D01*
X176314250Y-95895000D01*
X176473000Y-95736250D01*
X176473000Y-94487000D01*
X175223750Y-94487000D01*
X175065000Y-94645750D01*
X175061928Y-95260000D01*
X172991566Y-95260000D01*
X172987540Y-95239764D01*
X172894443Y-95015008D01*
X172759287Y-94812733D01*
X172587267Y-94640713D01*
X172384992Y-94505557D01*
X172160236Y-94412460D01*
X171921637Y-94365000D01*
X171678363Y-94365000D01*
X171439764Y-94412460D01*
X171215008Y-94505557D01*
X171012733Y-94640713D01*
X170840713Y-94812733D01*
X170705557Y-95015008D01*
X170629954Y-95197529D01*
X170554396Y-95015093D01*
X170419258Y-94812826D01*
X170247256Y-94640809D01*
X170045000Y-94505654D01*
X169820263Y-94412554D01*
X169581681Y-94365087D01*
X169387000Y-94520006D01*
X169387000Y-95473000D01*
X169407000Y-95473000D01*
X169407000Y-95727000D01*
X169387000Y-95727000D01*
X169387000Y-96402235D01*
X169342460Y-96509764D01*
X169295000Y-96748363D01*
X169047083Y-96748363D01*
X169133000Y-96679994D01*
X169133000Y-95727000D01*
X167991269Y-95727000D01*
X167866538Y-95917609D01*
X164662355Y-95917609D01*
X164692182Y-95861808D01*
X164774236Y-95591309D01*
X164801943Y-95310000D01*
X164799224Y-95282391D01*
X167866538Y-95282391D01*
X167991269Y-95473000D01*
X169133000Y-95473000D01*
X169133000Y-94520006D01*
X168938319Y-94365087D01*
X168699737Y-94412554D01*
X168475000Y-94505654D01*
X168272744Y-94640809D01*
X168100742Y-94812826D01*
X167965604Y-95015093D01*
X167872523Y-95239838D01*
X167866538Y-95282391D01*
X164799224Y-95282391D01*
X164774236Y-95028691D01*
X164692182Y-94758192D01*
X164558932Y-94508899D01*
X164379608Y-94290392D01*
X164161101Y-94111068D01*
X164028142Y-94040000D01*
X164161101Y-93968932D01*
X164379608Y-93789608D01*
X164558932Y-93571101D01*
X164618316Y-93460000D01*
X175061928Y-93460000D01*
X175065000Y-94074250D01*
X175223750Y-94233000D01*
X176473000Y-94233000D01*
X176473000Y-92983750D01*
X176727000Y-92983750D01*
X176727000Y-94233000D01*
X176747000Y-94233000D01*
X176747000Y-94487000D01*
X176727000Y-94487000D01*
X176727000Y-95736250D01*
X176885750Y-95895000D01*
X177500000Y-95898072D01*
X177624482Y-95885812D01*
X177744180Y-95849502D01*
X177854494Y-95790537D01*
X177951185Y-95711185D01*
X178030537Y-95614494D01*
X178089502Y-95504180D01*
X178095056Y-95485873D01*
X178161495Y-95552312D01*
X178412905Y-95720299D01*
X178692257Y-95836011D01*
X178988816Y-95895000D01*
X179291184Y-95895000D01*
X179587743Y-95836011D01*
X179867095Y-95720299D01*
X180118505Y-95552312D01*
X180332312Y-95338505D01*
X180500299Y-95087095D01*
X180616011Y-94807743D01*
X180675000Y-94511184D01*
X180675000Y-94208816D01*
X180616011Y-93912257D01*
X180500299Y-93632905D01*
X180332312Y-93381495D01*
X180118505Y-93167688D01*
X179867095Y-92999701D01*
X179587743Y-92883989D01*
X179291184Y-92825000D01*
X178988816Y-92825000D01*
X178692257Y-92883989D01*
X178412905Y-92999701D01*
X178161495Y-93167688D01*
X178095056Y-93234127D01*
X178089502Y-93215820D01*
X178030537Y-93105506D01*
X177951185Y-93008815D01*
X177854494Y-92929463D01*
X177744180Y-92870498D01*
X177624482Y-92834188D01*
X177500000Y-92821928D01*
X176885750Y-92825000D01*
X176727000Y-92983750D01*
X176473000Y-92983750D01*
X176314250Y-92825000D01*
X175700000Y-92821928D01*
X175575518Y-92834188D01*
X175455820Y-92870498D01*
X175345506Y-92929463D01*
X175248815Y-93008815D01*
X175169463Y-93105506D01*
X175110498Y-93215820D01*
X175074188Y-93335518D01*
X175061928Y-93460000D01*
X164618316Y-93460000D01*
X164692182Y-93321808D01*
X164774236Y-93051309D01*
X164801943Y-92770000D01*
X164774236Y-92488691D01*
X164692182Y-92218192D01*
X164558932Y-91968899D01*
X164379608Y-91750392D01*
X164161101Y-91571068D01*
X163911808Y-91437818D01*
X163720000Y-91379634D01*
X163720000Y-90817322D01*
X163723676Y-90779999D01*
X163720000Y-90742677D01*
X163720000Y-90742667D01*
X163709003Y-90631014D01*
X163665546Y-90487753D01*
X163594974Y-90355724D01*
X163500001Y-90239999D01*
X163470997Y-90216196D01*
X163153804Y-89899003D01*
X163130001Y-89869999D01*
X163014276Y-89775026D01*
X162882247Y-89704454D01*
X162738986Y-89660997D01*
X162627333Y-89650000D01*
X162627322Y-89650000D01*
X162590000Y-89646324D01*
X162552678Y-89650000D01*
X152827322Y-89650000D01*
X152789999Y-89646324D01*
X152752676Y-89650000D01*
X152752667Y-89650000D01*
X152641014Y-89660997D01*
X152497753Y-89704454D01*
X152365724Y-89775026D01*
X152249999Y-89869999D01*
X152226200Y-89898998D01*
X152029002Y-90096197D01*
X151999999Y-90119999D01*
X151944871Y-90187174D01*
X151905026Y-90235724D01*
X151891508Y-90261015D01*
X151834454Y-90367754D01*
X151790997Y-90511015D01*
X151780000Y-90622668D01*
X151780000Y-90622678D01*
X151776324Y-90660000D01*
X151780000Y-90697323D01*
X151780001Y-93707309D01*
X151752678Y-93710000D01*
X151567322Y-93710000D01*
X151530000Y-93706324D01*
X151492678Y-93710000D01*
X149875000Y-93710000D01*
X149875000Y-93708816D01*
X149816011Y-93412257D01*
X149700299Y-93132905D01*
X149532312Y-92881495D01*
X149318505Y-92667688D01*
X149067095Y-92499701D01*
X148787743Y-92383989D01*
X148491184Y-92325000D01*
X148188816Y-92325000D01*
X147892257Y-92383989D01*
X147612905Y-92499701D01*
X147361495Y-92667688D01*
X147147688Y-92881495D01*
X146979701Y-93132905D01*
X146863989Y-93412257D01*
X146805000Y-93708816D01*
X139660000Y-93708816D01*
X139660000Y-89461133D01*
X139706654Y-89695679D01*
X139886440Y-90129721D01*
X140147450Y-90520349D01*
X140479651Y-90852550D01*
X140870279Y-91113560D01*
X141304321Y-91293346D01*
X141765098Y-91385000D01*
X142234902Y-91385000D01*
X142695679Y-91293346D01*
X143129721Y-91113560D01*
X143520349Y-90852550D01*
X143852550Y-90520349D01*
X144113560Y-90129721D01*
X144293346Y-89695679D01*
X144385000Y-89234902D01*
X144385000Y-88765098D01*
X144293346Y-88304321D01*
X144113560Y-87870279D01*
X143852550Y-87479651D01*
X143520349Y-87147450D01*
X143129721Y-86886440D01*
X142695679Y-86706654D01*
X142461133Y-86660000D01*
X186538867Y-86660000D01*
X186304321Y-86706654D01*
G37*
%TD.AperFunction*%
%TD*%
M02*
